<svg width="214" height="211" viewBox="0 0 214 211" fill="none" xmlns="http://www.w3.org/2000/svg">
<path d="M107 11.6208V198.151" stroke="#00227E" stroke-width="3" stroke-miterlimit="10"/>
<path d="M91.98 32.4666V201.76" stroke="#00227E" stroke-width="3" stroke-miterlimit="10"/>
<path d="M103.862 16.2109V174.404" stroke="#00227E" stroke-width="3" stroke-miterlimit="10"/>
<path d="M100.622 15.7329V191.32" stroke="#00227E" stroke-width="3" stroke-miterlimit="10"/>
<path d="M94.958 53.6514V191.321" stroke="#00227E" stroke-width="3" stroke-miterlimit="10"/>
<path d="M97.814 23.5925V182.571" stroke="#00227E" stroke-width="3" stroke-miterlimit="10"/>
<path d="M88.5713 192.549V20.7373" stroke="#00227E" stroke-width="3" stroke-miterlimit="10"/>
<path d="M85.7153 182.571V20.7373" stroke="#00227E" stroke-width="3" stroke-miterlimit="10"/>
<path d="M79.2461 47.5099V28.3684" stroke="#00227E" stroke-width="3" stroke-miterlimit="10"/>
<path d="M75.3188 39.1915V17.6538" stroke="#00227E" stroke-width="3" stroke-miterlimit="10"/>
<path d="M77.1929 173.361V151.823" stroke="#00227E" stroke-width="3" stroke-miterlimit="10"/>
<path d="M75.0742 188.19V151.823" stroke="#00227E" stroke-width="3" stroke-miterlimit="10"/>
<path d="M72.2183 175.571V154.662" stroke="#00227E" stroke-width="3" stroke-miterlimit="10"/>
<path d="M67.0654 158.68L72.7438 150.171" stroke="#00227E" stroke-width="3" stroke-miterlimit="10"/>
<path d="M68.1035 186.024V159.974" stroke="#00227E" stroke-width="3" stroke-miterlimit="10"/>
<path d="M79.4814 181.19V61.6943" stroke="#00227E" stroke-width="3" stroke-miterlimit="10"/>
<path d="M82.5513 186.072V36.7954" stroke="#00227E" stroke-width="3" stroke-miterlimit="10"/>
<path d="M67.7598 159.974L72.48 152.435L73.4405 153.442L69.815 160.626H68.3107L67.7598 159.974Z" fill="#00227E"/>
<path d="M55.6138 151.823L56.765 154.426L67.7593 143.37L66.4833 142.175L55.6138 151.823Z" fill="#00227E"/>
<path d="M57.6855 148.299L55.6138 145.72L64.3645 139.225L65.6546 141.622L57.6855 148.299Z" fill="#00227E"/>
<path d="M64.0422 135.378L52.812 143.458L53.8159 144.853L65.0461 136.773L64.0422 135.378Z" fill="#00227E"/>
<path d="M64.0642 131.14L48.7202 140.858L49.6398 142.309L64.9838 132.592L64.0642 131.14Z" fill="#00227E"/>
<path d="M60.0354 129.817C60.0354 129.817 46.5857 136.509 45.4792 137.493C44.3727 138.474 42.2233 140.623 42.2233 140.623C42.2233 140.623 34.2401 140.746 33.9929 141.115C33.7457 141.485 33.9929 145.783 33.6233 145.844C33.2537 145.905 30.6758 145.844 30.6758 145.844V146.951L34.4214 146.645C34.4214 146.645 34.8522 146.461 34.9134 145.724C34.9746 144.987 34.9134 142.655 34.9134 142.655H42.7742C42.7742 142.655 44.3704 142.04 44.9848 141.487C45.5993 140.934 48.4244 137.681 48.4244 137.681V138.663L52.2312 137.926C52.2312 137.926 54.6254 134.12 55.6095 134.12C56.5936 134.12 61.076 131.665 61.076 131.665L60.0331 129.822V129.817H60.0354Z" fill="#00227E"/>
<path d="M58.9197 126.47L40.4131 133.287V135.13L25.1812 140.901V144.524H22.4479C22.4479 144.524 22.6316 148.7 21.7111 148.822C20.7905 148.944 17.4122 148.822 17.4122 148.822L17.1674 149.436H14.7119V150.971H22.6339C22.6339 150.971 23.9852 150.849 24.0465 149.803C24.1077 148.758 24.0465 146.487 24.0465 146.487H26.3183C26.3183 146.487 27.0552 145.995 27.0552 145.381C27.0552 144.766 26.9327 142.172 26.9327 142.172L41.7338 136.721C41.7338 136.721 43.33 135.064 43.6384 134.511C44.7449 134.266 59.6072 128.431 59.6072 128.431L58.9221 126.465V126.47H58.9197Z" fill="#00227E"/>
<path d="M58.0084 123.062L45.8794 126.931L46.4938 129.233L58.9195 124.813L58.0084 123.062Z" fill="#00227E"/>
<path d="M56.8523 120.053L48.1511 121.988H38.0185V123.064H43.8217C43.8217 123.064 39.0308 124.201 38.5717 124.66C38.1103 125.121 37.5594 126.15 37.5594 126.15C37.5594 126.15 22.8195 127.331 22.3581 127.701C21.8967 128.07 21.6212 128.807 21.6212 128.807H18.4901C18.4901 128.807 14.0076 131.693 13.6992 131.693V132.246H14.7115C14.7115 132.246 18.2429 130.036 18.8573 129.822C19.4718 129.607 38.2633 127.52 38.2633 127.52C38.2633 127.52 41.3332 124.879 43.299 125.126C45.2648 125.371 49.9921 124.205 50.6678 123.958C51.3434 123.711 57.5468 121.87 57.5468 121.87L56.8523 120.058V120.053Z" fill="#00227E"/>
<path d="M56.5653 116.4L45.3262 117.629V116.4H39.7985C39.7985 116.4 38.878 117.69 38.3247 117.629C37.7715 117.567 29.1738 117.629 29.1738 117.629V119.286H38.3247L40.5354 117.843H44.2197V119.716L56.563 118.365V116.4H56.5653Z" fill="#00227E"/>
<path d="M17.3838 116.4V117.888H24.9833L27.1492 116.4H32.9971V115.033H35.6244V113.098H24.4771V116.4H17.3838Z" fill="#00227E"/>
<path d="M38.0493 112.239V113.759H44.9119V115.494L56.8879 115.094L56.5654 113.098L47.4686 113.528L46.8918 112.608H42.5624V111.824H56.0592V109.475H40.3988V112.239H38.0493Z" fill="#00227E"/>
<path d="M40.2764 101.31V108.541H54.9691V105.869H45.4792V104.671H54.9691V101.656L40.2764 101.31Z" fill="#00227E"/>
<path d="M54.9692 100.886V99.2499C54.9692 99.2499 45.7641 98.9957 44.959 98.3295C44.1538 97.6634 43.0167 96.6936 42.6165 96.663C42.2163 96.6324 37.8562 96.663 37.8562 96.663C37.8562 96.663 36.7497 95.0671 36.4743 95.0365C36.1989 95.0059 26.8784 95.0365 26.8784 95.0365C26.8784 95.0365 24.5454 92.6121 24.39 92.6121H16.8965V94.208H23.0387V97.002H36.519V98.2613H39.3135V100.135L54.9668 100.888H54.9692V100.886Z" fill="#00227E"/>
<path d="M44.9189 94.6694V97.2493L54.9692 97.8942V95.5451L44.9189 94.6694Z" fill="#00227E"/>
<path d="M57.448 93.8409L36.905 93.1959V90.802H38.4705L39.1156 92.3203H44.4597L42.8706 90.802L26.504 88.8672L24.1921 86.9323H21.3364V85.8284H24.8372L26.956 87.5773L43.7228 89.3285L44.9188 90.802L58.0931 92.1838L57.448 93.8409Z" fill="#00227E"/>
<path d="M25.8496 82.9731V85.1833L44.4575 87.3936L45.8394 89.8345L58.5523 90.8938L58.0909 88.4057C58.0909 88.4057 43.4428 86.4709 41.51 83.7075C38.2847 83.5239 25.8496 82.9707 25.8496 82.9707V82.9731Z" fill="#00227E"/>
<path d="M56.8642 85.8282L44.5044 83.279C44.5044 83.279 40.8201 81.1911 40.4504 81.0687C39.9584 80.9463 26.7559 80.4543 26.7559 80.4543V81.5606L40.022 82.2974L44.3208 84.6913L56.8642 87.3323V85.8282Z" fill="#00227E"/>
<path d="M56.8642 82.2033L42.202 78.7973L40.2763 77.691L27.401 75.3889H13.2144V76.9542H27.401L39.716 79.3481L41.8112 80.4544H43.9842L45.272 82.2033L57.5258 84.5995L56.8642 82.2033Z" fill="#00227E"/>
<path d="M56.8643 79.3176L48.7116 77.0461L40.6672 71.5193L35.3701 70.7826V67.8355L32.6228 66.6068V63.7822C32.6228 63.7822 25.0068 62.5229 24.762 60.2515C24.5171 57.98 24.762 53.4347 24.762 53.4347L17.5156 50.7019V51.4999L23.719 53.9549L23.6578 61.692C23.6578 61.692 27.4034 64.9474 30.9042 65.9901C30.9654 68.5087 31.0266 69.1208 31.0266 69.1208C31.0266 69.1208 32.8087 69.4903 32.8087 69.7963V72.3761C32.8087 72.3761 33.3008 73.0658 39.9326 73.16C42.5129 74.8171 49.1919 79.3153 49.1919 79.3153L57.1139 81.4031L56.869 79.3153H56.8643V79.3176Z" fill="#00227E"/>
<path d="M37.3125 69.003L58.1851 78.3972V76.4317L37.9811 67.4683L37.3125 69.003Z" fill="#00227E"/>
<path d="M40.8413 66.515L61.2125 76.9543L61.3114 74.9912L41.5852 65.0156L40.8413 66.515Z" fill="#00227E"/>
<path d="M43.3271 63.415L62.6672 75.6573L62.945 73.713L44.2053 61.9885L43.3271 63.415Z" fill="#00227E"/>
<path d="M65.4477 63.0926L56.9419 51.5799L58.385 50.29L67.2299 62.7843L65.4477 63.0926Z" fill="#00227E"/>
<path d="M50.0015 54.1573L59.522 64.2906L60.5037 63.8599L50.7383 53.3594L50.0015 54.1573Z" fill="#00227E"/>
<path d="M45.3965 55.939L58.7215 67.7906L59.3971 66.3783L46.5618 54.5879L45.3965 55.939Z" fill="#00227E"/>
<path d="M66.707 49.3061L73.4613 63.8599L75.0599 63.0926L67.9971 48.5693L66.707 49.3061Z" fill="#00227E"/>
<path d="M69.071 62.5699L59.8589 48.1102V37.9392H61.3114V47.5099L69.9915 61.6942L69.071 62.5699Z" fill="#00227E"/>
<path d="M61.1066 26.8337H60.0942V36.7976H61.1066V26.8337Z" fill="#00227E"/>
<path d="M77.8525 39.4002L76.5581 39.6741L80.2443 57.0881L81.5387 56.8142L77.8525 39.4002Z" fill="#00227E"/>
<path d="M75.9912 43.6695L74.6968 43.9434L77.7517 58.3752L79.0461 58.1013L75.9912 43.6695Z" fill="#00227E"/>
<path d="M74.7024 43.9369L70.8838 41.0488V30.3035H72.5412L72.7931 39.1916L75.3215 41.3571L75.9972 43.6639C75.9972 43.6639 75.5122 44.4924 74.7024 43.9369Z" fill="#00227E"/>
<path d="M76.614 61.1882L73.2969 52.1C73.2969 52.1 70.1963 49.9816 70.2269 45.9283L70.2575 43.9016L67.8633 41.3218V28.3662" stroke="#00227E" stroke-width="3" stroke-miterlimit="10"/>
<path d="M62.0861 63.0925L49.6039 47.51V41.4465L44.0762 37.9393V33.5258H45.3969L45.6723 36.228L50.0018 39.481H50.5856V30.301H51.3837V46.6979L63.4821 62.5699L62.0861 63.0925Z" fill="#00227E"/>
<path d="M56.8642 68.8242L38.2728 54.5882V52.0695L32.4673 48.2351V31.8147H34.0352V46.6981L39.716 50.7043V53.6513L57.5258 67.7909L56.8642 68.8242Z" fill="#00227E"/>
<path d="M70.8531 146.948L62.9311 157.348V163.672H63.3619C63.3619 163.672 63.5455 169.383 63.3007 169.505C63.0558 169.628 62.0718 170.058 62.0718 170.364V179.083H63.1147V171.346C63.1147 171.346 64.6497 170.501 64.6497 170.002V163.013H63.8516L63.974 157.774L72.2185 147.334L70.8531 146.944V146.948Z" fill="#00227E"/>
<path d="M43.1226 182.202V172.438L49.4178 167.648V162.399L69.9043 144.27V145.468L61.6857 154.662L58.9195 157.486L57.5493 157.395L51.2305 163.234L51.3059 176.247H50.3406V169.246L43.8453 173.759V182.202H43.1226Z" fill="#00227E"/>
<path d="M61.0804 154.427V158.047L59.2417 159.885V165.6H60.1598V160.627L62.0691 158.68V153.626L61.0804 154.427Z" fill="#00227E"/>
<path d="M52.8028 143.45V145.458L43.1246 151.26V154.024L32.6294 159.972V175.569H33.7359L33.8442 161.038L44.1628 155.467L44.2099 152.435L53.6056 146.287L53.8104 144.846C53.8104 144.846 53.203 143.469 52.8052 143.45H52.8028Z" fill="#00227E"/>
<path d="M93.8589 15.3281L94.9583 59.9076" stroke="#00227E" stroke-width="4" stroke-miterlimit="10"/>
<path d="M31.0762 104.212H14.7119V106.643H31.0762V104.212Z" fill="#00227E"/>
<path d="M3.93157 104.212H0V106.643H3.93157V104.212Z" fill="#00227E"/>
<path d="M15.1801 92.6121H11.2485V94.2951H15.1801V92.6121Z" fill="#00227E"/>
<path d="M9.60506 92.6121H6.89062V94.2951H9.60506V92.6121Z" fill="#00227E"/>
<path d="M10.9473 75.269H7.12402V76.952H10.9473V75.269Z" fill="#00227E"/>
<path d="M14.7705 61.7297H10.9473V63.4127H14.7705V61.7297Z" fill="#00227E"/>
<path d="M25.852 61.7297H16.8823V63.4127H25.852V61.7297Z" fill="#00227E"/>
<path d="M35.9351 61.1482H32.1118V62.8312H35.9351V61.1482Z" fill="#00227E"/>
<path d="M34.1787 25.2168H32.2388V30.2799H34.1787V25.2168Z" fill="#00227E"/>
<path d="M51.9887 25.8357H50.0488V30.8988H51.9887V25.8357Z" fill="#00227E"/>
<path d="M68.8334 23.595H66.8936V28.6581H68.8334V23.595Z" fill="url(#paint0_linear_849_677)"/>
<path d="M83.5209 20.7397H81.5811V25.8029H83.5209V20.7397Z" fill="#00227E"/>
<path d="M94.8286 11.1455H92.8887V16.2086H94.8286V11.1455Z" fill="url(#paint1_linear_849_677)"/>
<path d="M107.97 7.50635H106.03V12.5695H107.97V7.50635Z" fill="#00227E"/>
<path d="M107.97 0H106.03V5.06312H107.97V0Z" fill="#00227E"/>
<path d="M21.3365 85.2397H17.5132V87.3323H21.3365V85.2397Z" fill="#00227E"/>
<path d="M15.338 116.4H12.6235V118.083H15.338V116.4Z" fill="#00227E"/>
<path d="M12.4844 149.344H9.47803V150.969H12.4844V149.344Z" fill="#00227E"/>
<path d="M40.4269 148.299H37.1592V150.157H40.4269V148.299Z" fill="#00227E"/>
<path d="M33.7148 175.392H31.2617V180.34H33.7148V175.392Z" fill="#00227E"/>
<path d="M44.7729 182.202H42.3198V187.15H44.7729V182.202Z" fill="#00227E"/>
<path d="M52.1348 175.938H49.6816V180.886H52.1348V175.938Z" fill="#00227E"/>
<path d="M60.6332 165.6H58.625V170.548H60.6332V165.6Z" fill="url(#paint2_linear_849_677)"/>
<path d="M69.1087 185.714H67.1006V190.662H69.1087V185.714Z" fill="#00227E"/>
<path d="M92.9828 201.758H90.9746V206.705H92.9828V201.758Z" fill="#00227E"/>
<path d="M108.003 198.151H105.995V202.506H108.003V198.151Z" fill="#00227E"/>
<path d="M108.003 205.889H105.995V210.243H108.003V205.889Z" fill="#00227E"/>
<path d="M72.8685 175.59H71.4136V180.538H72.8685V175.59Z" fill="url(#paint3_linear_849_677)"/>
<path d="M8.10819 104.212H5.67627V106.643H8.10819V104.212Z" fill="#00227E"/>
<path d="M12.6258 104.212H10.1938V106.643H12.6258V104.212Z" fill="#00227E"/>
<path d="M17.5134 48.9951H13.9585V52.1728H17.5134V48.9951Z" fill="#00227E"/>
<path d="M13.8193 130.862H10.3491V133.842H13.8193V130.862Z" fill="#00227E"/>
<path d="M20.6206 79.5906V78.1619H24.0295V78.6679H25.4562L26.7557 80.4545V81.5608L24.903 79.8613H24.0295V79.36L20.6206 79.5906Z" fill="#00227E"/>
<path d="M107 11.6208V198.151" stroke="#00227E" stroke-width="3" stroke-miterlimit="10"/>
<path d="M122.02 32.4666V201.76" stroke="#00227E" stroke-width="3" stroke-miterlimit="10"/>
<path d="M110.138 16.2109V174.404" stroke="#00227E" stroke-width="3" stroke-miterlimit="10"/>
<path d="M113.378 15.7329V191.32" stroke="#00227E" stroke-width="3" stroke-miterlimit="10"/>
<path d="M119.042 53.6514V191.321" stroke="#00227E" stroke-width="3" stroke-miterlimit="10"/>
<path d="M116.186 23.5925V182.571" stroke="#00227E" stroke-width="3" stroke-miterlimit="10"/>
<path d="M125.429 192.549V20.7373" stroke="#00227E" stroke-width="3" stroke-miterlimit="10"/>
<path d="M128.285 182.571V20.7373" stroke="#00227E" stroke-width="3" stroke-miterlimit="10"/>
<path d="M134.754 47.5099V28.3684" stroke="#00227E" stroke-width="3" stroke-miterlimit="10"/>
<path d="M138.681 39.1915V17.6538" stroke="#00227E" stroke-width="3" stroke-miterlimit="10"/>
<path d="M136.807 173.361V151.823" stroke="#00227E" stroke-width="3" stroke-miterlimit="10"/>
<path d="M138.926 188.19V151.823" stroke="#00227E" stroke-width="3" stroke-miterlimit="10"/>
<path d="M141.781 175.571V154.662" stroke="#00227E" stroke-width="3" stroke-miterlimit="10"/>
<path d="M146.935 158.68L141.256 150.171" stroke="#00227E" stroke-width="3" stroke-miterlimit="10"/>
<path d="M145.896 186.024V159.974" stroke="#00227E" stroke-width="3" stroke-miterlimit="10"/>
<path d="M134.519 181.19V61.6943" stroke="#00227E" stroke-width="3" stroke-miterlimit="10"/>
<path d="M131.449 186.072V36.7954" stroke="#00227E" stroke-width="3" stroke-miterlimit="10"/>
<path d="M146.24 159.974L141.52 152.435L140.56 153.442L144.185 160.626H145.689L146.24 159.974Z" fill="#00227E"/>
<path d="M158.386 151.823L157.235 154.426L146.24 143.37L147.516 142.175L158.386 151.823Z" fill="#00227E"/>
<path d="M156.314 148.299L158.386 145.72L149.635 139.225L148.345 141.622L156.314 148.299Z" fill="#00227E"/>
<path d="M149.966 135.353L148.962 136.748L160.192 144.828L161.196 143.434L149.966 135.353Z" fill="#00227E"/>
<path d="M149.929 131.136L149.01 132.588L164.354 142.305L165.273 140.853L149.929 131.136Z" fill="#00227E"/>
<path d="M153.965 129.817C153.965 129.817 167.415 136.509 168.521 137.493C169.628 138.477 171.777 140.623 171.777 140.623C171.777 140.623 179.76 140.746 180.007 141.115C180.255 141.485 180.007 145.783 180.377 145.844C180.747 145.905 183.325 145.844 183.325 145.844V146.951L179.579 146.645C179.579 146.645 179.148 146.461 179.087 145.724C179.026 144.987 179.087 142.655 179.087 142.655H171.226C171.226 142.655 169.63 142.04 169.016 141.487C168.401 140.934 165.576 137.681 165.576 137.681V138.663L161.769 137.926C161.769 137.926 159.375 134.12 158.391 134.12C157.407 134.12 152.924 131.665 152.924 131.665L153.967 129.822V129.817H153.965Z" fill="#00227E"/>
<path d="M155.08 126.47L173.587 133.287V135.13L188.819 140.901V144.524H191.552C191.552 144.524 191.369 148.7 192.289 148.822C193.21 148.944 196.588 148.822 196.588 148.822L196.833 149.436H199.288V150.971H191.366C191.366 150.971 190.015 150.849 189.954 149.803C189.893 148.758 189.954 146.487 189.954 146.487H187.682C187.682 146.487 186.945 145.995 186.945 145.381C186.945 144.766 187.067 142.172 187.067 142.172L172.266 136.721C172.266 136.721 170.67 135.064 170.362 134.511C169.255 134.266 154.393 128.431 154.393 128.431L155.078 126.465V126.47H155.08Z" fill="#00227E"/>
<path d="M155.992 123.062L168.121 126.931L167.506 129.233L155.081 124.813L155.992 123.062Z" fill="#00227E"/>
<path d="M157.148 120.053L165.849 121.988H175.982V123.064H170.178C170.178 123.064 174.969 124.201 175.428 124.66C175.887 125.119 176.441 126.15 176.441 126.15C176.441 126.15 191.18 127.331 191.642 127.701C192.103 128.07 192.379 128.807 192.379 128.807H195.51C195.51 128.807 199.992 131.693 200.301 131.693V132.246H199.288C199.288 132.246 195.757 130.036 195.143 129.822C194.528 129.607 175.737 127.52 175.737 127.52C175.737 127.52 172.667 124.879 170.701 125.126C168.735 125.371 164.008 124.205 163.332 123.958C162.657 123.713 156.453 121.87 156.453 121.87L157.148 120.058V120.053Z" fill="#00227E"/>
<path d="M157.435 116.4L168.674 117.629V116.4H174.201C174.201 116.4 175.122 117.69 175.675 117.629C176.228 117.567 184.826 117.629 184.826 117.629V119.286H175.675L173.465 117.843H169.78V119.716L157.437 118.365V116.4H157.435Z" fill="#00227E"/>
<path d="M196.616 116.4V117.888H189.017L186.851 116.4H181.003V115.033H178.375V113.098H189.523V116.4H196.616Z" fill="#00227E"/>
<path d="M175.951 112.239V113.759H169.088V115.494L157.112 115.094L157.435 113.098L166.532 113.528L167.108 112.608H171.438V111.824H157.941V109.475H173.601V112.239H175.951Z" fill="#00227E"/>
<path d="M173.724 101.31V108.541H159.031V105.869H168.521V104.671H159.031V101.656L173.724 101.31Z" fill="#00227E"/>
<path d="M159.031 100.886V99.2499C159.031 99.2499 168.236 98.9957 169.041 98.3295C169.846 97.6634 170.983 96.6936 171.383 96.663C171.784 96.6324 176.144 96.663 176.144 96.663C176.144 96.663 177.25 95.0671 177.526 95.0365C177.801 95.0059 187.121 95.0365 187.121 95.0365C187.121 95.0365 189.455 92.6121 189.61 92.6121H197.103V94.208H190.961V97.002H177.481V98.2613H174.686V100.135L159.033 100.888H159.031V100.886Z" fill="#00227E"/>
<path d="M169.081 94.6694V97.2493L159.031 97.8942V95.5451L169.081 94.6694Z" fill="#00227E"/>
<path d="M156.552 93.8409L177.095 93.1959V90.802H175.529L174.884 92.3203H169.54L171.129 90.802L187.496 88.8672L189.808 86.9323H192.663V85.8284H189.163L187.044 87.5773L170.277 89.3285L169.081 90.802L155.907 92.1838L156.552 93.8409Z" fill="#00227E"/>
<path d="M188.15 82.9731V85.1833L169.543 87.3936L168.161 89.8345L155.448 90.8938L155.909 88.4057C155.909 88.4057 170.557 86.4709 172.49 83.7075C175.715 83.5239 188.15 82.9707 188.15 82.9707V82.9731Z" fill="#00227E"/>
<path d="M157.136 85.8282L169.495 83.279C169.495 83.279 173.18 81.1911 173.549 81.0687C174.041 80.9463 187.244 80.4543 187.244 80.4543V81.5606L173.978 82.2974L169.679 84.6913L157.136 87.3323V85.8282Z" fill="#00227E"/>
<path d="M157.136 82.2033L171.798 78.7973L173.724 77.691L186.599 75.3889H200.786V76.9542H186.599L174.284 79.3481L172.189 80.4544H170.016L168.728 82.2033L156.474 84.5995L157.136 82.2033Z" fill="#00227E"/>
<path d="M157.136 79.3176L165.288 77.0461L173.333 71.5193L178.63 70.7826V67.8355L181.377 66.6068V63.7822C181.377 63.7822 188.993 62.5229 189.238 60.2515C189.483 57.98 189.238 53.4347 189.238 53.4347L196.484 50.7019V51.4999L190.281 53.9549L190.342 61.692C190.342 61.692 186.597 64.9474 183.096 65.9901C183.035 68.5087 182.974 69.1208 182.974 69.1208C182.974 69.1208 181.191 69.4903 181.191 69.7963V72.3761C181.191 72.3761 180.699 73.0658 174.067 73.16C171.487 74.8171 164.808 79.3153 164.808 79.3153L156.886 81.4031L157.131 79.3153H157.136V79.3176Z" fill="#00227E"/>
<path d="M176.688 69.003L155.815 78.3972V76.4317L176.019 67.4683L176.688 69.003Z" fill="#00227E"/>
<path d="M173.159 66.515L152.787 76.9543L152.688 74.9912L172.415 65.0156L173.159 66.515Z" fill="#00227E"/>
<path d="M170.673 63.415L151.332 75.6573L151.055 73.713L169.794 61.9885L170.673 63.415Z" fill="#00227E"/>
<path d="M148.552 63.0926L157.058 51.5799L155.615 50.29L146.77 62.7843L148.552 63.0926Z" fill="#00227E"/>
<path d="M163.998 54.1573L154.478 64.2906L153.496 63.8599L163.261 53.3594L163.998 54.1573Z" fill="#00227E"/>
<path d="M168.603 55.939L155.278 67.7906L154.603 66.3783L167.438 54.5879L168.603 55.939Z" fill="#00227E"/>
<path d="M147.293 49.3061L140.538 63.8599L138.94 63.0926L146.003 48.5693L147.293 49.3061Z" fill="#00227E"/>
<path d="M144.929 62.5699L154.141 48.1102V37.9392H152.689V47.5099L144.009 61.6942L144.929 62.5699Z" fill="#00227E"/>
<path d="M153.906 26.8315H152.894V36.7954H153.906V26.8315Z" fill="#00227E"/>
<path d="M136.134 39.3989L132.448 56.813L133.742 57.0869L137.428 39.6729L136.134 39.3989Z" fill="#00227E"/>
<path d="M137.995 43.6702L134.94 58.1021L136.235 58.376L139.29 43.9441L137.995 43.6702Z" fill="#00227E"/>
<path d="M139.298 43.9369L143.116 41.0488V30.3035H141.459L141.207 39.1916L138.679 41.3571L138.003 43.6639C138.003 43.6639 138.488 44.4924 139.298 43.9369Z" fill="#00227E"/>
<path d="M137.386 61.1882L140.703 52.1C140.703 52.1 143.804 49.9816 143.773 45.9283L143.743 43.9016L146.137 41.3218V28.3662" stroke="#00227E" stroke-width="3" stroke-miterlimit="10"/>
<path d="M151.914 63.0925L164.396 47.51V41.4465L169.924 37.9393V33.5258H168.603L168.328 36.228L163.998 39.481H163.415V30.301H162.616V46.6979L150.518 62.5699L151.914 63.0925Z" fill="#00227E"/>
<path d="M157.136 68.8242L175.727 54.5882V52.0695L181.533 48.2351V31.8147H179.965V46.6981L174.284 50.7043V53.6513L156.474 67.7909L157.136 68.8242Z" fill="#00227E"/>
<path d="M143.147 146.948L151.069 157.348V163.672H150.638C150.638 163.672 150.454 169.383 150.699 169.505C150.944 169.628 151.928 170.058 151.928 170.364V179.083H150.885V171.346C150.885 171.346 149.35 170.501 149.35 170.002V163.013H150.148L150.026 157.774L141.781 147.334L143.147 146.944V146.948Z" fill="#00227E"/>
<path d="M170.877 182.202V172.438L164.582 167.648V162.399L144.096 144.27V145.468L152.314 154.662L155.081 157.486L156.451 157.395L162.769 163.234L162.694 176.247H163.659V169.246L170.155 173.759V182.202H170.877Z" fill="#00227E"/>
<path d="M152.919 154.427V158.047L154.758 159.885V165.6H153.839V160.627L151.93 158.68V153.626L152.919 154.427Z" fill="#00227E"/>
<path d="M161.197 143.45V145.458L170.875 151.26V154.024L181.37 159.972V175.569H180.264L180.155 161.038L169.837 155.467L169.79 152.435L160.394 146.287L160.189 144.846C160.189 144.846 160.796 143.469 161.194 143.45H161.197Z" fill="#00227E"/>
<path d="M120.141 15.3281L119.042 59.9076" stroke="#00227E" stroke-width="4" stroke-miterlimit="10"/>
<path d="M199.289 104.214H182.924V106.646H199.289V104.214Z" fill="#00227E"/>
<path d="M214 104.214H210.068V106.646H214V104.214Z" fill="#00227E"/>
<path d="M202.751 92.6145H198.82V94.2975H202.751V92.6145Z" fill="#00227E"/>
<path d="M207.107 92.6145H204.392V94.2975H207.107V92.6145Z" fill="#00227E"/>
<path d="M206.876 75.2712H203.053V76.9542H206.876V75.2712Z" fill="#00227E"/>
<path d="M203.053 61.7273H199.229V63.4103H203.053V61.7273Z" fill="#00227E"/>
<path d="M197.118 61.7273H188.148V63.4103H197.118V61.7273Z" fill="#00227E"/>
<path d="M181.891 61.1482H178.067V62.8312H181.891V61.1482Z" fill="#00227E"/>
<path d="M181.764 25.2168H179.824V30.2799H181.764V25.2168Z" fill="#00227E"/>
<path d="M163.949 25.8357H162.009V30.8988H163.949V25.8357Z" fill="#00227E"/>
<path d="M147.107 23.5925H145.167V28.6557H147.107V23.5925Z" fill="#00227E"/>
<path d="M132.419 20.7373H130.479V25.8004H132.419V20.7373Z" fill="url(#paint4_linear_849_677)"/>
<path d="M121.109 11.1455H119.169V16.2086H121.109V11.1455Z" fill="#00227E"/>
<path d="M107.97 7.50635H106.03V12.5695H107.97V7.50635Z" fill="#00227E"/>
<path d="M107.97 0H106.03V5.06312H107.97V0Z" fill="#00227E"/>
<path d="M196.487 85.2373H192.664V87.3299H196.487V85.2373Z" fill="#00227E"/>
<path d="M201.377 116.4H198.662V118.083H201.377V116.4Z" fill="#00227E"/>
<path d="M204.521 149.347H201.515V150.971H204.521V149.347Z" fill="#00227E"/>
<path d="M176.843 148.302H173.575V150.159H176.843V148.302Z" fill="#00227E"/>
<path d="M182.736 175.39H180.283V180.337H182.736V175.39Z" fill="#00227E"/>
<path d="M171.683 182.202H169.229V187.15H171.683V182.202Z" fill="#00227E"/>
<path d="M164.314 175.938H161.861V180.886H164.314V175.938Z" fill="#00227E"/>
<path d="M155.372 165.6H153.364V170.548H155.372V165.6Z" fill="url(#paint5_linear_849_677)"/>
<path d="M146.9 185.716H144.892V190.664H146.9V185.716Z" fill="#00227E"/>
<path d="M123.023 201.76H121.015V206.708H123.023V201.76Z" fill="#00227E"/>
<path d="M108.003 198.151H105.995V202.506H108.003V198.151Z" fill="#00227E"/>
<path d="M108.003 205.889H105.995V210.243H108.003V205.889Z" fill="#00227E"/>
<path d="M142.584 175.59H141.129V180.538H142.584V175.59Z" fill="url(#paint6_linear_849_677)"/>
<path d="M208.324 104.214H205.892V106.646H208.324V104.214Z" fill="#00227E"/>
<path d="M203.806 104.214H201.374V106.646H203.806V104.214Z" fill="#00227E"/>
<path d="M200.042 48.9951H196.487V52.1728H200.042V48.9951Z" fill="#00227E"/>
<path d="M203.653 130.86H200.183V133.84H203.653V130.86Z" fill="#00227E"/>
<path d="M193.379 79.5906V78.1619H189.97V78.6679H188.544L187.244 80.4545V81.5608L189.097 79.8613H189.97V79.36L193.379 79.5906Z" fill="#00227E"/>
<path d="M107 177.866C107 177.866 71.8135 161.627 60.6332 133.312C54.4275 114.361 54.7971 106.163 54.7971 106.163C54.7971 106.163 54.1826 69.4642 54.7053 61.1481C54.7053 61.1481 83.3563 62.1673 106.939 43.7461C106.939 43.7461 129.749 61.4094 159.031 61.1905C159.031 61.1905 159.229 104.318 158.386 112.485C157.543 120.653 155.087 152.058 107 177.866Z" fill="url(#paint7_linear_849_677)"/>
<path d="M148.978 79.6001C148.863 79.5083 148.755 79.4142 148.651 79.3153C148.505 79.7837 148.352 80.2474 148.192 80.7111C147.759 81.9563 145.918 81.7562 145.88 80.3981C145.788 77.2227 146.377 74.0168 147.533 71.0533C148.234 67.885 149.736 64.865 150.221 61.6638C150.229 61.6144 150.24 61.5697 150.252 61.5226C131.232 59.39 115.374 49.1414 115.374 49.1414C109.408 59.8561 106.527 61.991 106.527 61.991L121.107 118.057C121.107 118.057 135.91 119.133 146.638 117.838C146.728 117.342 146.848 116.85 146.97 116.36C147.38 114.71 147.639 113.02 147.881 111.337C148.42 107.601 148.661 103.908 148.689 100.137C148.738 93.2783 148.192 86.4263 148.976 79.6001H148.978Z" fill="url(#paint8_linear_849_677)"/>
<path d="M107 177.866C107 177.866 71.8135 161.627 60.6332 133.312C54.4275 114.361 54.7971 106.163 54.7971 106.163C54.7971 106.163 54.1826 69.4642 54.7053 61.1481C54.7053 61.1481 83.3563 62.1673 106.939 43.7461C106.939 43.7461 129.749 61.4094 159.031 61.1905C159.031 61.1905 159.229 104.318 158.386 112.485C157.543 120.653 155.087 152.058 107 177.866Z" stroke="url(#paint9_linear_849_677)" stroke-width="6" stroke-miterlimit="10"/>
<path d="M149.718 103.988C149.635 108.032 149.518 111.309 149.353 112.923C148.658 119.665 146.631 145.571 106.96 166.862C106.96 166.862 77.9324 153.466 68.7108 130.106C63.5904 114.472 63.8941 107.71 63.8941 107.71C63.8941 107.71 63.8705 106.269 63.8376 103.946C63.7622 98.798 63.6445 89.3096 63.6445 81.549C63.6445 76.7566 63.6893 72.6209 63.8187 70.573C63.8187 70.573 88.1804 73.7083 106.529 61.9909L110.138 57.6575C116.935 61.6614 131.409 69.535 146.504 70.5071C147.63 70.5801 148.757 70.6154 149.885 70.606C149.885 70.606 149.979 91.1668 149.718 103.988Z" fill="#00227E"/>
<path d="M149.717 103.988C148.314 103.202 146.504 103.082 146.504 103.082V70.5071C147.629 70.58 148.757 70.6154 149.885 70.6059C149.885 70.6059 149.979 91.1668 149.717 103.988Z" fill="url(#paint10_linear_849_677)"/>
<path d="M106.911 56.2146L106.529 61.9909C106.529 61.9909 97.5361 73.1058 83.5213 81.5608V78.788C83.5213 78.788 68.8215 90.729 66.7074 94.6694C66.5591 97.873 67.0488 102.764 65.8222 104.925C65.8222 104.925 65.1042 102.341 63.8376 103.946C63.7622 98.798 63.6445 89.3097 63.6445 81.549C63.6445 76.7566 63.6893 72.6209 63.8187 70.5731C63.8187 70.5731 87.4976 71.2298 106.911 56.2146Z" fill="url(#paint11_linear_849_677)"/>
<path d="M76.4328 106.549C75.5806 106.549 74.8531 106.37 74.2528 106.013C73.6524 105.655 73.1934 105.132 72.8779 104.447C72.5624 103.762 72.4023 102.934 72.4023 101.964V98.5886C72.4023 97.6118 72.5601 96.7832 72.8779 96.1006C73.1957 95.418 73.6524 94.8978 74.2528 94.5353C74.8531 94.1751 75.5806 93.9939 76.4328 93.9939C77.1391 93.9939 77.7653 94.161 78.3138 94.4929C78.8624 94.8248 79.3167 95.3073 79.6769 95.9405C80.0371 96.5714 80.2867 97.3387 80.4232 98.2426H78.2455C78.1632 97.8307 78.0384 97.4823 77.8665 97.1975C77.6947 96.9127 77.4875 96.6938 77.245 96.5408C77.0025 96.3878 76.7294 96.3124 76.4281 96.3124C75.8395 96.3124 75.3852 96.5102 75.0603 96.908C74.7354 97.3058 74.5729 97.866 74.5729 98.5863V101.962C74.5729 102.684 74.7354 103.242 75.0603 103.638C75.3852 104.033 75.8395 104.231 76.4281 104.231C76.8872 104.231 77.2756 104.064 77.5934 103.727C77.9113 103.393 78.1278 102.917 78.2455 102.301H80.4232C80.2796 103.197 80.0277 103.962 79.6675 104.598C79.3073 105.234 78.8529 105.716 78.3068 106.048C77.7606 106.38 77.1344 106.547 76.4281 106.547H76.4328V106.549Z" fill="white"/>
<path d="M82.189 106.422V94.1138H84.2889V106.422H82.189ZM83.0247 101.472V99.2382H86.9021C87.2294 99.2382 87.4907 99.1063 87.6885 98.8404C87.8862 98.5744 87.9851 98.226 87.9922 97.7905C87.9922 97.3574 87.8933 97.0067 87.6979 96.7407C87.5001 96.4747 87.2365 96.3429 86.9045 96.3429H83.0271V94.1091H87.074C87.6932 94.1091 88.2323 94.2621 88.6961 94.5658C89.1575 94.8694 89.5177 95.3002 89.772 95.851C90.0286 96.4041 90.1557 97.0491 90.1557 97.7882C90.1557 98.5273 90.0262 99.1723 89.7696 99.7254C89.5106 100.279 89.1528 100.707 88.6937 101.011C88.2346 101.314 87.6955 101.467 87.0764 101.467H83.0294L83.0247 101.472ZM88.0769 106.422L85.3719 101.093L87.6178 100.705L90.6218 106.422H88.0769Z" fill="white"/>
<path d="M92.4204 106.422V94.1208H94.5204V106.422H92.4204ZM93.1808 96.3547V94.1208H99.888V96.3547H93.1808ZM93.1808 101.43V99.1957H99.0429V101.43H93.1808ZM93.1808 106.422V104.188H99.888V106.422H93.1808Z" fill="white"/>
<path d="M100.729 106.422L104.99 94.1208H106.325L110.586 106.422H108.326L105.658 98.0212L102.991 106.422H100.729ZM102.777 104.45V102.216H108.641V104.45H102.777Z" fill="white"/>
<path d="M110.126 96.3547V94.1208H118.296V96.3547H110.126ZM113.161 106.422V95.1283H115.261V106.422H113.161Z" fill="white"/>
<path d="M121.547 94.1208V106.422H119.369V94.1208H121.547Z" fill="white"/>
<path d="M126.712 106.422L123.002 94.1208H125.163L127.532 102.326L129.9 94.1208H132.061L128.351 106.422H126.71H126.712Z" fill="white"/>
<path d="M133.44 106.422V94.1208H135.54V106.422H133.44ZM134.201 96.3547V94.1208H140.908V96.3547H134.201ZM134.201 101.43V99.1957H140.065V101.43H134.201ZM134.201 106.422V104.188H140.908V106.422H134.201Z" fill="white"/>
<path d="M82.3888 129.44C80.9669 129.44 79.7544 129.151 78.7539 128.572C77.7533 127.993 76.9882 127.148 76.4609 126.039C75.9335 124.93 75.6675 123.591 75.6675 122.021V116.56C75.6675 114.981 75.9312 113.639 76.4609 112.535C76.9882 111.431 77.7533 110.586 78.7539 110.002C79.7544 109.419 80.9669 109.127 82.3888 109.127C83.5636 109.127 84.6112 109.395 85.527 109.934C86.4428 110.473 87.2009 111.252 87.8012 112.274C88.4015 113.295 88.8159 114.536 89.0466 115.998H85.4164C85.2798 115.331 85.0703 114.769 84.7831 114.308C84.4982 113.846 84.1521 113.493 83.7472 113.246C83.3423 112.999 82.8879 112.876 82.3865 112.876C81.4071 112.876 80.6467 113.199 80.1052 113.841C79.5637 114.484 79.293 115.39 79.293 116.558V122.019C79.293 123.186 79.5637 124.09 80.1052 124.728C80.6467 125.366 81.4071 125.686 82.3865 125.686C83.1539 125.686 83.8014 125.415 84.3287 124.872C84.8561 124.328 85.2186 123.56 85.414 122.565H89.0442C88.8065 124.015 88.3851 125.255 87.7847 126.282C87.1844 127.308 86.4287 128.092 85.5176 128.628C84.6065 129.167 83.5612 129.436 82.3865 129.436V129.44H82.3888Z" fill="white"/>
<path d="M98.1316 129.44C96.7685 129.44 95.5772 129.137 94.5602 128.529C93.5432 127.922 92.7522 127.067 92.1895 125.964C91.6268 124.86 91.3467 123.572 91.3467 122.103V116.463C91.3467 114.985 91.6268 113.695 92.1895 112.596C92.7522 111.497 93.5408 110.642 94.5602 110.037C95.5772 109.43 96.7685 109.126 98.1316 109.126C99.4947 109.126 100.686 109.43 101.703 110.037C102.72 110.645 103.511 111.497 104.074 112.596C104.636 113.695 104.916 114.985 104.916 116.463V122.103C104.916 123.572 104.636 124.86 104.074 125.964C103.511 127.067 102.72 127.924 101.703 128.529C100.686 129.137 99.4947 129.44 98.1316 129.44ZM98.1316 125.69C99.085 125.69 99.8502 125.37 100.425 124.732C100.999 124.095 101.286 123.25 101.286 122.2V116.369C101.286 115.31 100.999 114.465 100.425 113.829C99.8502 113.196 99.085 112.878 98.1316 112.878C97.1781 112.878 96.413 113.196 95.8386 113.829C95.2641 114.465 94.9769 115.31 94.9769 116.369V122.2C94.9769 123.25 95.2641 124.092 95.8386 124.732C96.413 125.37 97.1781 125.69 98.1316 125.69Z" fill="white"/>
<path d="M108.368 129.235V109.334H111.868V129.235H108.368ZM109.964 121.515V117.902H115.906C116.537 117.902 117.048 117.676 117.439 117.224C117.829 116.772 118.027 116.176 118.027 115.437C118.027 114.698 117.834 114.074 117.446 113.622C117.057 113.17 116.544 112.944 115.906 112.944H109.964V109.331H115.816C116.991 109.331 118.015 109.586 118.889 110.092C119.762 110.598 120.443 111.309 120.928 112.219C121.412 113.133 121.655 114.204 121.655 115.437C121.655 116.671 121.412 117.727 120.928 118.641C120.443 119.554 119.76 120.26 118.884 120.762C118.006 121.263 116.984 121.515 115.816 121.515H109.964Z" fill="white"/>
<path d="M130.246 129.44C129.36 129.44 128.492 129.344 127.644 129.153C126.797 128.962 126.003 128.68 125.262 128.31C124.52 127.941 123.851 127.496 123.256 126.976L124.878 123.883C125.594 124.511 126.42 124.999 127.357 125.34C128.294 125.681 129.257 125.853 130.246 125.853C131.387 125.853 132.273 125.646 132.904 125.229C133.534 124.815 133.85 124.229 133.85 123.471V123.457C133.85 122.882 133.692 122.442 133.377 122.136C133.061 121.83 132.647 121.604 132.131 121.458C131.616 121.312 131.055 121.19 130.45 121.089C129.725 120.971 128.993 120.823 128.252 120.644C127.51 120.465 126.83 120.183 126.206 119.794C125.584 119.406 125.083 118.853 124.704 118.13C124.325 117.41 124.134 116.447 124.134 115.242V115.228C124.134 113.284 124.73 111.782 125.923 110.718C127.117 109.654 128.802 109.124 130.982 109.124C131.988 109.124 133.009 109.306 134.05 109.666C135.088 110.026 136.056 110.539 136.95 111.205L135.467 114.38C134.752 113.841 134.003 113.429 133.224 113.142C132.444 112.855 131.696 112.712 130.98 112.712C129.907 112.712 129.076 112.9 128.489 113.279C127.901 113.658 127.606 114.19 127.606 114.872V114.886C127.606 115.524 127.781 116.009 128.131 116.336C128.48 116.666 128.937 116.908 129.499 117.068C130.062 117.229 130.667 117.377 131.314 117.513C132.03 117.659 132.741 117.841 133.45 118.055C134.156 118.269 134.803 118.577 135.392 118.977C135.98 119.38 136.449 119.931 136.797 120.635C137.146 121.338 137.322 122.249 137.322 123.372V123.4C137.322 125.316 136.706 126.802 135.47 127.856C134.234 128.911 132.492 129.438 130.243 129.438H130.246V129.44Z" fill="white"/>
<path d="M170.508 103.117V107.154H169.844V103.873L169.31 104.141V103.444L169.898 103.117H170.508Z" fill="#92E5EA"/>
<path d="M172.968 103.117V107.154H172.304V103.873L171.77 104.141V103.444L172.358 103.117H172.968Z" fill="#92E5EA"/>
<path d="M175.576 107.194C175.183 107.194 174.889 107.091 174.691 106.886C174.493 106.679 174.395 106.401 174.395 106.048V104.212C174.395 103.854 174.493 103.574 174.694 103.371C174.891 103.169 175.186 103.065 175.576 103.065C175.967 103.065 176.261 103.167 176.459 103.369C176.657 103.572 176.756 103.852 176.756 104.212V106.048C176.756 106.406 176.657 106.686 176.457 106.888C176.257 107.093 175.965 107.194 175.574 107.194H175.576ZM175.576 106.559C175.76 106.559 175.892 106.504 175.972 106.396C176.052 106.288 176.092 106.14 176.092 105.951V104.311C176.092 104.12 176.052 103.972 175.972 103.863C175.892 103.755 175.76 103.703 175.576 103.703C175.393 103.703 175.261 103.757 175.181 103.863C175.101 103.972 175.061 104.12 175.061 104.311V105.951C175.061 106.14 175.101 106.288 175.181 106.396C175.261 106.504 175.393 106.559 175.576 106.559Z" fill="#92E5EA"/>
<path d="M179.134 103.117V107.154H178.47V103.873L177.936 104.141V103.444L178.524 103.117H179.134Z" fill="#92E5EA"/>
<path d="M181.744 107.194C181.351 107.194 181.057 107.091 180.859 106.886C180.661 106.679 180.562 106.401 180.562 106.048V104.212C180.562 103.854 180.661 103.574 180.861 103.371C181.059 103.169 181.354 103.065 181.744 103.065C182.135 103.065 182.429 103.167 182.627 103.369C182.825 103.572 182.924 103.852 182.924 104.212V106.048C182.924 106.406 182.825 106.686 182.625 106.888C182.425 107.093 182.133 107.194 181.742 107.194H181.744ZM181.744 106.559C181.928 106.559 182.06 106.504 182.14 106.396C182.22 106.288 182.26 106.14 182.26 105.951V104.311C182.26 104.12 182.22 103.972 182.14 103.863C182.06 103.755 181.928 103.703 181.744 103.703C181.561 103.703 181.429 103.757 181.349 103.863C181.269 103.972 181.229 104.12 181.229 104.311V105.951C181.229 106.14 181.269 106.288 181.349 106.396C181.429 106.504 181.561 106.559 181.744 106.559Z" fill="#92E5EA"/>
<path d="M185.34 107.194C184.946 107.194 184.652 107.091 184.454 106.886C184.257 106.679 184.158 106.401 184.158 106.048V104.212C184.158 103.854 184.257 103.574 184.457 103.371C184.654 103.169 184.949 103.065 185.34 103.065C185.73 103.065 186.025 103.167 186.222 103.369C186.42 103.572 186.519 103.852 186.519 104.212V106.048C186.519 106.406 186.42 106.686 186.22 106.888C186.02 107.093 185.728 107.194 185.337 107.194H185.34ZM185.34 106.559C185.523 106.559 185.655 106.504 185.735 106.396C185.815 106.288 185.855 106.14 185.855 105.951V104.311C185.855 104.12 185.815 103.972 185.735 103.863C185.655 103.755 185.523 103.703 185.34 103.703C185.156 103.703 185.024 103.757 184.944 103.863C184.864 103.972 184.824 104.12 184.824 104.311V105.951C184.824 106.14 184.864 106.288 184.944 106.396C185.024 106.504 185.156 106.559 185.34 106.559Z" fill="#92E5EA"/>
<path d="M188.897 103.117V107.154H188.233V103.873L187.699 104.141V103.444L188.287 103.117H188.897Z" fill="#92E5EA"/>
<path d="M191.357 103.117V107.154H190.693V103.873L190.159 104.141V103.444L190.747 103.117H191.357Z" fill="#92E5EA"/>
<path d="M22.2618 103.157V107.194H21.5979V103.913L21.0635 104.181V103.484L21.652 103.157H22.2618Z" fill="#92E5EA"/>
<path d="M24.8703 107.237C24.4771 107.237 24.1829 107.133 23.9851 106.928C23.7874 106.721 23.6885 106.443 23.6885 106.09V104.254C23.6885 103.896 23.7874 103.616 23.9875 103.414C24.1852 103.211 24.4795 103.108 24.8703 103.108C25.2611 103.108 25.5554 103.209 25.7531 103.412C25.9509 103.614 26.0498 103.894 26.0498 104.254V106.09C26.0498 106.448 25.9509 106.728 25.7508 106.931C25.5507 107.135 25.2588 107.237 24.868 107.237H24.8703ZM24.8703 106.601C25.0539 106.601 25.1858 106.547 25.2658 106.439C25.3459 106.33 25.3859 106.182 25.3859 105.994V104.353C25.3859 104.162 25.3459 104.014 25.2658 103.906C25.1858 103.798 25.0539 103.746 24.8703 103.746C24.6867 103.746 24.5548 103.8 24.4748 103.906C24.3947 104.014 24.3547 104.162 24.3547 104.353V105.994C24.3547 106.182 24.3947 106.33 24.4748 106.439C24.5548 106.547 24.6867 106.601 24.8703 106.601Z" fill="#92E5EA"/>
<path d="M28.4278 103.157V107.194H27.7639V103.913L27.2295 104.181V103.484L27.8181 103.157H28.4278Z" fill="#92E5EA"/>
<path d="M31.0383 107.237C30.6451 107.237 30.3508 107.133 30.1531 106.928C29.9553 106.721 29.8564 106.443 29.8564 106.09V104.254C29.8564 103.896 29.9553 103.616 30.1554 103.414C30.3532 103.211 30.6475 103.108 31.0383 103.108C31.4291 103.108 31.7234 103.209 31.9211 103.412C32.1189 103.614 32.2177 103.894 32.2177 104.254V106.09C32.2177 106.448 32.1189 106.728 31.9188 106.931C31.7186 107.135 31.4267 107.237 31.0359 107.237H31.0383ZM31.0383 106.601C31.2219 106.601 31.3537 106.547 31.4338 106.439C31.5138 106.33 31.5538 106.182 31.5538 105.994V104.353C31.5538 104.162 31.5138 104.014 31.4338 103.906C31.3537 103.798 31.2219 103.746 31.0383 103.746C30.8546 103.746 30.7228 103.8 30.6428 103.906C30.5627 104.014 30.5227 104.162 30.5227 104.353V105.994C30.5227 106.182 30.5627 106.33 30.6428 106.439C30.7228 106.547 30.8546 106.601 31.0383 106.601Z" fill="#92E5EA"/>
<path d="M34.6335 107.237C34.2403 107.237 33.9461 107.133 33.7483 106.928C33.5505 106.721 33.4517 106.443 33.4517 106.09V104.254C33.4517 103.896 33.5505 103.616 33.7506 103.414C33.9484 103.211 34.2427 103.108 34.6335 103.108C35.0243 103.108 35.3186 103.209 35.5163 103.412C35.7141 103.614 35.813 103.894 35.813 104.254V106.09C35.813 106.448 35.7141 106.728 35.514 106.931C35.3139 107.135 35.0219 107.237 34.6311 107.237H34.6335ZM34.6335 106.601C34.8171 106.601 34.949 106.547 35.029 106.439C35.109 106.33 35.1491 106.182 35.1491 105.994V104.353C35.1491 104.162 35.109 104.014 35.029 103.906C34.949 103.798 34.8171 103.746 34.6335 103.746C34.4499 103.746 34.318 103.8 34.238 103.906C34.1579 104.014 34.1179 104.162 34.1179 104.353V105.994C34.1179 106.182 34.1579 106.33 34.238 106.439C34.318 106.547 34.4499 106.601 34.6335 106.601Z" fill="#92E5EA"/>
<path d="M38.1905 103.157V107.194H37.5266V103.913L36.9922 104.181V103.484L37.5807 103.157H38.1905Z" fill="#92E5EA"/>
<path d="M40.8015 107.237C40.4083 107.237 40.114 107.133 39.9163 106.928C39.7185 106.721 39.6196 106.443 39.6196 106.09V104.254C39.6196 103.896 39.7185 103.616 39.9186 103.414C40.1164 103.211 40.4107 103.108 40.8015 103.108C41.1923 103.108 41.4865 103.209 41.6843 103.412C41.882 103.614 41.9809 103.894 41.9809 104.254V106.09C41.9809 106.448 41.882 106.728 41.6819 106.931C41.4818 107.135 41.1899 107.237 40.7991 107.237H40.8015ZM40.8015 106.601C40.9851 106.601 41.1169 106.547 41.197 106.439C41.277 106.33 41.317 106.182 41.317 105.994V104.353C41.317 104.162 41.277 104.014 41.197 103.906C41.1169 103.798 40.9851 103.746 40.8015 103.746C40.6178 103.746 40.486 103.8 40.4059 103.906C40.3259 104.014 40.2859 104.162 40.2859 104.353V105.994C40.2859 106.182 40.3259 106.33 40.4059 106.439C40.486 106.547 40.6178 106.601 40.8015 106.601Z" fill="#92E5EA"/>
<path d="M44.3585 103.157V107.194H43.6946V103.913L43.1602 104.181V103.484L43.7487 103.157H44.3585Z" fill="#92E5EA"/>
<path d="M31.2383 80.5627V84.5996H30.5744V81.3183L30.04 81.5867V80.8899L30.6286 80.5627H31.2383Z" fill="#92E5EA"/>
<path d="M33.6983 80.5627V84.5996H33.0344V81.3183L32.5 81.5867V80.8899L33.0886 80.5627H33.6983Z" fill="#92E5EA"/>
<path d="M36.1588 80.5627V84.5996H35.4949V81.3183L34.9604 81.5867V80.8899L35.549 80.5627H36.1588Z" fill="#92E5EA"/>
<path d="M38.7673 84.6421C38.3741 84.6421 38.0798 84.5385 37.8821 84.3337C37.6843 84.1266 37.5854 83.8488 37.5854 83.4957V81.6597C37.5854 81.302 37.6843 81.0219 37.8844 80.8194C38.0822 80.617 38.3765 80.5134 38.7673 80.5134C39.1581 80.5134 39.4524 80.6146 39.6501 80.8171C39.8479 81.0195 39.9467 81.2996 39.9467 81.6597V83.4957C39.9467 83.8535 39.8479 84.1336 39.6478 84.3361C39.4477 84.5409 39.1557 84.6421 38.7649 84.6421H38.7673ZM38.7673 84.0042C38.9509 84.0042 39.0827 83.95 39.1628 83.8418C39.2428 83.7335 39.2829 83.5852 39.2829 83.3969V81.7563C39.2829 81.5656 39.2428 81.4173 39.1628 81.309C39.0827 81.2008 38.9509 81.149 38.7673 81.149C38.5836 81.149 38.4518 81.2031 38.3718 81.309C38.2917 81.4173 38.2517 81.5656 38.2517 81.7563V83.3969C38.2517 83.5852 38.2917 83.7335 38.3718 83.8418C38.4518 83.95 38.5836 84.0042 38.7673 84.0042Z" fill="#92E5EA"/>
<path d="M42.3644 84.6421C41.9713 84.6421 41.677 84.5385 41.4793 84.3337C41.2815 84.1266 41.1826 83.8488 41.1826 83.4957V81.6597C41.1826 81.302 41.2815 81.0219 41.4816 80.8194C41.6794 80.617 41.9736 80.5134 42.3644 80.5134C42.7553 80.5134 43.0495 80.6146 43.2473 80.8171C43.445 81.0195 43.5439 81.2996 43.5439 81.6597V83.4957C43.5439 83.8535 43.445 84.1336 43.2449 84.3361C43.0448 84.5409 42.7529 84.6421 42.3621 84.6421H42.3644ZM42.3644 84.0042C42.5481 84.0042 42.6799 83.95 42.76 83.8418C42.84 83.7335 42.88 83.5852 42.88 83.3969V81.7563C42.88 81.5656 42.84 81.4173 42.76 81.309C42.6799 81.2008 42.5481 81.149 42.3644 81.149C42.1808 81.149 42.049 81.2031 41.9689 81.309C41.8889 81.4173 41.8489 81.5656 41.8489 81.7563V83.3969C41.8489 83.5852 41.8889 83.7335 41.9689 83.8418C42.049 83.95 42.1808 84.0042 42.3644 84.0042Z" fill="#92E5EA"/>
<path d="M23.5518 122.598V126.634H22.8879V123.353L22.3535 123.622V122.925L22.9421 122.598H23.5518Z" fill="#92E5EA"/>
<path d="M26.1603 126.677C25.7672 126.677 25.4729 126.573 25.2751 126.369C25.0774 126.161 24.9785 125.884 24.9785 125.531V123.695C24.9785 123.337 25.0774 123.057 25.2775 122.854C25.4753 122.652 25.7695 122.548 26.1603 122.548C26.5511 122.548 26.8454 122.65 27.0432 122.852C27.2409 123.054 27.3398 123.335 27.3398 123.695V125.531C27.3398 125.888 27.2409 126.169 27.0408 126.371C26.8407 126.576 26.5488 126.677 26.158 126.677H26.1603ZM26.1603 126.041C26.344 126.041 26.4758 125.987 26.5559 125.879C26.6359 125.771 26.6759 125.622 26.6759 125.434V123.794C26.6759 123.603 26.6359 123.455 26.5559 123.346C26.4758 123.238 26.344 123.186 26.1603 123.186C25.9767 123.186 25.8449 123.24 25.7648 123.346C25.6848 123.455 25.6448 123.603 25.6448 123.794V125.434C25.6448 125.622 25.6848 125.771 25.7648 125.879C25.8449 125.987 25.9767 126.041 26.1603 126.041Z" fill="#92E5EA"/>
<path d="M29.7173 122.598V126.634H29.0535V123.353L28.519 123.622V122.925L29.1076 122.598H29.7173Z" fill="#92E5EA"/>
<path d="M32.3283 126.677C31.9352 126.677 31.6409 126.573 31.4431 126.369C31.2454 126.161 31.1465 125.884 31.1465 125.531V123.695C31.1465 123.337 31.2454 123.057 31.4455 122.854C31.6432 122.652 31.9375 122.548 32.3283 122.548C32.7191 122.548 33.0134 122.65 33.2111 122.852C33.4089 123.054 33.5078 123.335 33.5078 123.695V125.531C33.5078 125.888 33.4089 126.169 33.2088 126.371C33.0087 126.576 32.7168 126.677 32.326 126.677H32.3283ZM32.3283 126.041C32.5119 126.041 32.6438 125.987 32.7238 125.879C32.8039 125.771 32.8439 125.622 32.8439 125.434V123.794C32.8439 123.603 32.8039 123.455 32.7238 123.346C32.6438 123.238 32.5119 123.186 32.3283 123.186C32.1447 123.186 32.0128 123.24 31.9328 123.346C31.8528 123.455 31.8127 123.603 31.8127 123.794V125.434C31.8127 125.622 31.8528 125.771 31.9328 125.879C32.0128 125.987 32.1447 126.041 32.3283 126.041Z" fill="#92E5EA"/>
<path d="M35.9235 126.677C35.5304 126.677 35.2361 126.573 35.0383 126.369C34.8406 126.161 34.7417 125.884 34.7417 125.531V123.695C34.7417 123.337 34.8406 123.057 35.0407 122.854C35.2384 122.652 35.5327 122.548 35.9235 122.548C36.3143 122.548 36.6086 122.65 36.8064 122.852C37.0041 123.054 37.103 123.335 37.103 123.695V125.531C37.103 125.888 37.0041 126.169 36.804 126.371C36.6039 126.576 36.312 126.677 35.9212 126.677H35.9235ZM35.9235 126.041C36.1072 126.041 36.239 125.987 36.319 125.879C36.3991 125.771 36.4391 125.622 36.4391 125.434V123.794C36.4391 123.603 36.3991 123.455 36.319 123.346C36.239 123.238 36.1072 123.186 35.9235 123.186C35.7399 123.186 35.6081 123.24 35.528 123.346C35.448 123.455 35.4079 123.603 35.4079 123.794V125.434C35.4079 125.622 35.448 125.771 35.528 125.879C35.6081 125.987 35.7399 126.041 35.9235 126.041Z" fill="#92E5EA"/>
<path d="M39.4805 122.598V126.634H38.8166V123.353L38.2822 123.622V122.925L38.8708 122.598H39.4805Z" fill="#92E5EA"/>
<path d="M42.0915 126.677C41.6983 126.677 41.4041 126.573 41.2063 126.369C41.0085 126.161 40.9097 125.884 40.9097 125.531V123.695C40.9097 123.337 41.0086 123.057 41.2087 122.854C41.4064 122.652 41.7007 122.548 42.0915 122.548C42.4823 122.548 42.7766 122.65 42.9743 122.852C43.1721 123.054 43.271 123.335 43.271 123.695V125.531C43.271 125.888 43.1721 126.169 42.972 126.371C42.7719 126.576 42.4799 126.677 42.0891 126.677H42.0915ZM42.0915 126.041C42.2751 126.041 42.407 125.987 42.487 125.879C42.5671 125.771 42.6071 125.622 42.6071 125.434V123.794C42.6071 123.603 42.5671 123.455 42.487 123.346C42.407 123.238 42.2751 123.186 42.0915 123.186C41.9079 123.186 41.776 123.24 41.696 123.346C41.6159 123.455 41.5759 123.603 41.5759 123.794V125.434C41.5759 125.622 41.6159 125.771 41.696 125.879C41.776 125.987 41.9079 126.041 42.0915 126.041Z" fill="#92E5EA"/>
<path d="M45.6461 122.598V126.634H44.9822V123.353L44.4478 123.622V122.925L45.0363 122.598H45.6461Z" fill="#92E5EA"/>
<path d="M34.777 138.423C34.3839 138.423 34.0896 138.319 33.8919 138.114C33.6941 137.907 33.5952 137.629 33.5952 137.276V135.44C33.5952 135.082 33.6941 134.802 33.8942 134.6C34.092 134.398 34.3862 134.294 34.777 134.294C35.1678 134.294 35.4621 134.395 35.6599 134.598C35.8576 134.8 35.9565 135.08 35.9565 135.44V137.276C35.9565 137.634 35.8576 137.914 35.6575 138.117C35.4574 138.321 35.1655 138.423 34.7747 138.423H34.777ZM34.777 137.787C34.9607 137.787 35.0925 137.733 35.1726 137.625C35.2526 137.516 35.2926 137.368 35.2926 137.18V135.539C35.2926 135.348 35.2526 135.2 35.1726 135.092C35.0925 134.984 34.9607 134.932 34.777 134.932C34.5934 134.932 34.4616 134.986 34.3815 135.092C34.3015 135.2 34.2615 135.348 34.2615 135.539V137.18C34.2615 137.368 34.3015 137.516 34.3815 137.625C34.4616 137.733 34.5934 137.787 34.777 137.787Z" fill="#92E5EA"/>
<path d="M38.3718 138.423C37.9786 138.423 37.6843 138.319 37.4866 138.114C37.2888 137.907 37.1899 137.629 37.1899 137.276V135.44C37.1899 135.082 37.2888 134.802 37.4889 134.6C37.6867 134.398 37.981 134.294 38.3718 134.294C38.7626 134.294 39.0569 134.395 39.2546 134.598C39.4524 134.8 39.5512 135.08 39.5512 135.44V137.276C39.5512 137.634 39.4524 137.914 39.2522 138.117C39.0521 138.321 38.7602 138.423 38.3694 138.423H38.3718ZM38.3718 137.787C38.5554 137.787 38.6872 137.733 38.7673 137.625C38.8473 137.516 38.8873 137.368 38.8873 137.18V135.539C38.8873 135.348 38.8473 135.2 38.7673 135.092C38.6872 134.984 38.5554 134.932 38.3718 134.932C38.1881 134.932 38.0563 134.986 37.9763 135.092C37.8962 135.2 37.8562 135.348 37.8562 135.539V137.18C37.8562 137.368 37.8962 137.516 37.9763 137.625C38.0563 137.733 38.1881 137.787 38.3718 137.787Z" fill="#92E5EA"/>
<path d="M41.9694 138.423C41.5763 138.423 41.282 138.319 41.0842 138.114C40.8865 137.907 40.7876 137.629 40.7876 137.276V135.44C40.7876 135.082 40.8865 134.802 41.0866 134.6C41.2843 134.398 41.5786 134.294 41.9694 134.294C42.3602 134.294 42.6545 134.395 42.8523 134.598C43.05 134.8 43.1489 135.08 43.1489 135.44V137.276C43.1489 137.634 43.05 137.914 42.8499 138.117C42.6498 138.321 42.3579 138.423 41.9671 138.423H41.9694ZM41.9694 137.787C42.1531 137.787 42.2849 137.733 42.3649 137.625C42.445 137.516 42.485 137.368 42.485 137.18V135.539C42.485 135.348 42.445 135.2 42.3649 135.092C42.2849 134.984 42.1531 134.932 41.9694 134.932C41.7858 134.932 41.654 134.986 41.5739 135.092C41.4939 135.2 41.4538 135.348 41.4538 135.539V137.18C41.4538 137.368 41.4939 137.516 41.5739 137.625C41.654 137.733 41.7858 137.787 41.9694 137.787Z" fill="#92E5EA"/>
<path d="M45.5642 138.423C45.171 138.423 44.8767 138.319 44.679 138.114C44.4812 137.907 44.3823 137.629 44.3823 137.276V135.44C44.3823 135.082 44.4812 134.802 44.6813 134.6C44.8791 134.398 45.1734 134.294 45.5642 134.294C45.955 134.294 46.2492 134.395 46.447 134.598C46.6447 134.8 46.7436 135.08 46.7436 135.44V137.276C46.7436 137.634 46.6447 137.914 46.4446 138.117C46.2445 138.321 45.9526 138.423 45.5618 138.423H45.5642ZM45.5642 137.787C45.7478 137.787 45.8796 137.733 45.9597 137.625C46.0397 137.516 46.0797 137.368 46.0797 137.18V135.539C46.0797 135.348 46.0397 135.2 45.9597 135.092C45.8796 134.984 45.7478 134.932 45.5642 134.932C45.3805 134.932 45.2487 134.986 45.1686 135.092C45.0886 135.2 45.0486 135.348 45.0486 135.539V137.18C45.0486 137.368 45.0886 137.516 45.1686 137.625C45.2487 137.733 45.3805 137.787 45.5642 137.787Z" fill="#92E5EA"/>
<path d="M49.1212 134.346V138.383H48.4573V135.101L47.9229 135.37V134.673L48.5114 134.346H49.1212Z" fill="#92E5EA"/>
<path d="M51.5816 134.346V138.383H50.9177V135.101L50.3833 135.37V134.673L50.9719 134.346H51.5816Z" fill="#92E5EA"/>
<path d="M54.1901 138.423C53.797 138.423 53.5027 138.319 53.3049 138.114C53.1072 137.907 53.0083 137.629 53.0083 137.276V135.44C53.0083 135.082 53.1072 134.802 53.3073 134.6C53.505 134.398 53.7993 134.294 54.1901 134.294C54.5809 134.294 54.8752 134.395 55.073 134.598C55.2707 134.8 55.3696 135.08 55.3696 135.44V137.276C55.3696 137.634 55.2707 137.914 55.0706 138.117C54.8705 138.321 54.5786 138.423 54.1878 138.423H54.1901ZM54.1901 137.787C54.3738 137.787 54.5056 137.733 54.5856 137.625C54.6657 137.516 54.7057 137.368 54.7057 137.18V135.539C54.7057 135.348 54.6657 135.2 54.5856 135.092C54.5056 134.984 54.3738 134.932 54.1901 134.932C54.0065 134.932 53.8747 134.986 53.7946 135.092C53.7146 135.2 53.6745 135.348 53.6745 135.539V137.18C53.6745 137.368 53.7146 137.516 53.7946 137.625C53.8747 137.733 54.0065 137.787 54.1901 137.787Z" fill="#92E5EA"/>
<path d="M45.7759 152.494V156.531H45.112V153.249L44.5776 153.518V152.821L45.1662 152.494H45.7759Z" fill="#92E5EA"/>
<path d="M48.3869 156.573C47.9937 156.573 47.6995 156.47 47.5017 156.262C47.304 156.055 47.2051 155.778 47.2051 155.424V153.588C47.2051 153.231 47.304 152.951 47.5041 152.748C47.7018 152.543 47.9961 152.442 48.3869 152.442C48.7777 152.442 49.072 152.543 49.2697 152.746C49.4675 152.948 49.5664 153.228 49.5664 153.588V155.424C49.5664 155.782 49.4675 156.062 49.2674 156.265C49.0673 156.47 48.7753 156.571 48.3845 156.571H48.3869V156.573ZM48.3869 155.938C48.5705 155.938 48.7024 155.883 48.7824 155.775C48.8625 155.667 48.9025 155.519 48.9025 155.33V153.69C48.9025 153.499 48.8625 153.351 48.7824 153.242C48.7024 153.134 48.5705 153.082 48.3869 153.082C48.2033 153.082 48.0714 153.137 47.9914 153.242C47.9113 153.351 47.8713 153.499 47.8713 153.69V155.33C47.8713 155.519 47.9113 155.667 47.9914 155.775C48.0714 155.883 48.2033 155.938 48.3869 155.938Z" fill="#92E5EA"/>
<path d="M50.852 156.531V155.942L52.2481 154.092C52.321 153.998 52.3752 153.902 52.4152 153.8C52.4552 153.699 52.4741 153.605 52.4741 153.518V153.513C52.4741 153.379 52.4317 153.273 52.3493 153.2C52.2669 153.127 52.1492 153.09 51.9985 153.09C51.8478 153.09 51.7372 153.134 51.6454 153.224C51.5536 153.313 51.4994 153.44 51.4806 153.605H50.7979C50.8379 153.238 50.9626 152.955 51.1722 152.753C51.3817 152.551 51.6571 152.452 51.9915 152.452C52.3611 152.452 52.6483 152.543 52.8531 152.727C53.0556 152.911 53.1591 153.17 53.1591 153.504C53.1591 153.669 53.1285 153.836 53.0673 154.003C53.0061 154.172 52.919 154.328 52.8107 154.471L51.7278 155.893H53.1827V156.529H50.8496H50.852V156.531Z" fill="#92E5EA"/>
<path d="M54.3593 156.531V155.942L55.7554 154.092C55.8284 153.998 55.8825 153.902 55.9225 153.8C55.9626 153.699 55.9814 153.605 55.9814 153.518V153.513C55.9814 153.379 55.939 153.273 55.8566 153.2C55.7742 153.127 55.6565 153.09 55.5058 153.09C55.3552 153.09 55.2445 153.134 55.1527 153.224C55.0609 153.313 55.0067 153.44 54.9879 153.605H54.3052C54.3452 153.238 54.47 152.955 54.6795 152.753C54.889 152.551 55.1645 152.452 55.4988 152.452C55.8684 152.452 56.1556 152.543 56.3604 152.727C56.5629 152.911 56.6665 153.17 56.6665 153.504C56.6665 153.669 56.6359 153.836 56.5747 154.003C56.5134 154.172 56.4263 154.328 56.318 154.471L55.2351 155.893H56.69V156.529H54.357H54.3593V156.531Z" fill="#92E5EA"/>
<path d="M58.9576 152.494V156.531H58.2937V153.249L57.7593 153.518V152.821L58.3478 152.494H58.9576Z" fill="#92E5EA"/>
<path d="M61.4175 152.494V156.531H60.7536V153.249L60.2192 153.518V152.821L60.8078 152.494H61.4175Z" fill="#92E5EA"/>
<path d="M16.1314 143.799V147.836H15.4675V144.554L14.9331 144.823V144.126L15.5217 143.799H16.1314Z" fill="#92E5EA"/>
<path d="M18.5919 143.799V147.836H17.928V144.554L17.3936 144.823V144.126L17.9821 143.799H18.5919Z" fill="#92E5EA"/>
<path d="M21.1999 147.876C20.8067 147.876 20.5125 147.772 20.3147 147.567C20.1169 147.36 20.0181 147.082 20.0181 146.729V144.893C20.0181 144.536 20.1169 144.255 20.3171 144.053C20.5148 143.851 20.8091 143.747 21.1999 143.747C21.5907 143.747 21.885 143.848 22.0827 144.051C22.2805 144.253 22.3794 144.533 22.3794 144.893V146.729C22.3794 147.087 22.2805 147.367 22.0804 147.57C21.8803 147.774 21.5883 147.876 21.1975 147.876H21.1999ZM21.1999 147.24C21.3835 147.24 21.5154 147.186 21.5954 147.078C21.6754 146.969 21.7155 146.821 21.7155 146.633V144.992C21.7155 144.802 21.6754 144.653 21.5954 144.545C21.5154 144.437 21.3835 144.385 21.1999 144.385C21.0163 144.385 20.8844 144.439 20.8044 144.545C20.7243 144.653 20.6843 144.802 20.6843 144.992V146.633C20.6843 146.821 20.7243 146.969 20.8044 147.078C20.8844 147.186 21.0163 147.24 21.1999 147.24Z" fill="#92E5EA"/>
<path d="M24.7975 147.876C24.4044 147.876 24.1101 147.772 23.9124 147.567C23.7146 147.36 23.6157 147.082 23.6157 146.729V144.893C23.6157 144.536 23.7146 144.255 23.9147 144.053C24.1125 143.851 24.4067 143.747 24.7975 143.747C25.1884 143.747 25.4826 143.848 25.6804 144.051C25.8781 144.253 25.977 144.533 25.977 144.893V146.729C25.977 147.087 25.8781 147.367 25.678 147.57C25.4779 147.774 25.186 147.876 24.7952 147.876H24.7975ZM24.7975 147.24C24.9812 147.24 25.113 147.186 25.1931 147.078C25.2731 146.969 25.3131 146.821 25.3131 146.633V144.992C25.3131 144.802 25.2731 144.653 25.1931 144.545C25.113 144.437 24.9812 144.385 24.7975 144.385C24.6139 144.385 24.4821 144.439 24.402 144.545C24.322 144.653 24.282 144.802 24.282 144.992V146.633C24.282 146.821 24.322 146.969 24.402 147.078C24.4821 147.186 24.6139 147.24 24.7975 147.24Z" fill="#92E5EA"/>
<path d="M28.3923 147.876C27.9991 147.876 27.7048 147.772 27.5071 147.567C27.3093 147.36 27.2104 147.082 27.2104 146.729V144.893C27.2104 144.536 27.3093 144.255 27.5094 144.053C27.7072 143.851 28.0015 143.747 28.3923 143.747C28.7831 143.747 29.0774 143.848 29.2751 144.051C29.4729 144.253 29.5717 144.533 29.5717 144.893V146.729C29.5717 147.087 29.4729 147.367 29.2728 147.57C29.0726 147.774 28.7807 147.876 28.3899 147.876H28.3923ZM28.3923 147.24C28.5759 147.24 28.7077 147.186 28.7878 147.078C28.8678 146.969 28.9079 146.821 28.9079 146.633V144.992C28.9079 144.802 28.8678 144.653 28.7878 144.545C28.7077 144.437 28.5759 144.385 28.3923 144.385C28.2086 144.385 28.0768 144.439 27.9968 144.545C27.9167 144.653 27.8767 144.802 27.8767 144.992V146.633C27.8767 146.821 27.9167 146.969 27.9968 147.078C28.0768 147.186 28.2086 147.24 28.3923 147.24Z" fill="#92E5EA"/>
<path d="M17.1553 59.0554V63.0923H16.4914V59.811L15.957 60.0793V59.3826L16.5456 59.0554H17.1553Z" fill="#92E5EA"/>
<path d="M19.6153 59.0557V63.0925H18.9514V59.8112L18.417 60.0796V59.3829L19.0056 59.0557H19.6153Z" fill="#92E5EA"/>
<path d="M22.2263 63.1347C21.8331 63.1347 21.5388 63.0312 21.3411 62.8264C21.1433 62.6193 21.0444 62.3415 21.0444 61.9884V60.1524C21.0444 59.7946 21.1433 59.5145 21.3434 59.3121C21.5412 59.1097 21.8355 59.0061 22.2263 59.0061C22.6171 59.0061 22.9113 59.1073 23.1091 59.3097C23.3069 59.5122 23.4057 59.7923 23.4057 60.1524V61.9884C23.4057 62.3462 23.3069 62.6263 23.1067 62.8287C22.9066 63.0335 22.6147 63.1347 22.2239 63.1347H22.2263ZM22.2263 62.4969C22.4099 62.4969 22.5417 62.4427 22.6218 62.3344C22.7018 62.2262 22.7418 62.0779 22.7418 61.8896V60.2489C22.7418 60.0583 22.7018 59.91 22.6218 59.8017C22.5417 59.6934 22.4099 59.6416 22.2263 59.6416C22.0426 59.6416 21.9108 59.6958 21.8307 59.8017C21.7507 59.91 21.7107 60.0583 21.7107 60.2489V61.8896C21.7107 62.0779 21.7507 62.2262 21.8307 62.3344C21.9108 62.4427 22.0426 62.4969 22.2263 62.4969Z" fill="#92E5EA"/>
<path d="M25.821 63.1347C25.4278 63.1347 25.1335 63.0312 24.9358 62.8264C24.738 62.6193 24.6392 62.3415 24.6392 61.9884V60.1524C24.6392 59.7946 24.738 59.5145 24.9381 59.3121C25.1359 59.1097 25.4302 59.0061 25.821 59.0061C26.2118 59.0061 26.5061 59.1073 26.7038 59.3097C26.9016 59.5122 27.0005 59.7923 27.0005 60.1524V61.9884C27.0005 62.3462 26.9016 62.6263 26.7015 62.8287C26.5014 63.0335 26.2094 63.1347 25.8186 63.1347H25.821ZM25.821 62.4969C26.0046 62.4969 26.1365 62.4427 26.2165 62.3344C26.2965 62.2262 26.3366 62.0779 26.3366 61.8896V60.2489C26.3366 60.0583 26.2965 59.91 26.2165 59.8017C26.1365 59.6934 26.0046 59.6416 25.821 59.6416C25.6374 59.6416 25.5055 59.6958 25.4255 59.8017C25.3454 59.91 25.3054 60.0583 25.3054 60.2489V61.8896C25.3054 62.0779 25.3454 62.2262 25.4255 62.3344C25.5055 62.4427 25.6374 62.4969 25.821 62.4969Z" fill="#92E5EA"/>
<path d="M29.4162 63.1347C29.023 63.1347 28.7288 63.0312 28.531 62.8264C28.3333 62.6193 28.2344 62.3415 28.2344 61.9884V60.1524C28.2344 59.7946 28.3333 59.5145 28.5334 59.3121C28.7311 59.1097 29.0254 59.0061 29.4162 59.0061C29.807 59.0061 30.1013 59.1073 30.299 59.3097C30.4968 59.5122 30.5957 59.7923 30.5957 60.1524V61.9884C30.5957 62.3462 30.4968 62.6263 30.2967 62.8287C30.0966 63.0335 29.8047 63.1347 29.4138 63.1347H29.4162ZM29.4162 62.4969C29.5998 62.4969 29.7317 62.4427 29.8117 62.3344C29.8918 62.2262 29.9318 62.0779 29.9318 61.8896V60.2489C29.9318 60.0583 29.8918 59.91 29.8117 59.8017C29.7317 59.6934 29.5998 59.6416 29.4162 59.6416C29.2326 59.6416 29.1007 59.6958 29.0207 59.8017C28.9406 59.91 28.9006 60.0583 28.9006 60.2489V61.8896C28.9006 62.0779 28.9406 62.2262 29.0207 62.3344C29.1007 62.4427 29.2326 62.4969 29.4162 62.4969Z" fill="#92E5EA"/>
<path d="M170.244 122.11V126.147H169.58V122.866L169.046 123.134V122.438L169.634 122.11H170.244Z" fill="#92E5EA"/>
<path d="M172.704 122.11V126.147H172.04V122.866L171.506 123.134V122.438L172.094 122.11H172.704Z" fill="#92E5EA"/>
<path d="M175.315 126.19C174.922 126.19 174.628 126.086 174.43 125.879C174.232 125.672 174.133 125.394 174.133 125.041V123.205C174.133 122.847 174.232 122.567 174.432 122.365C174.63 122.16 174.924 122.059 175.315 122.059C175.706 122.059 176 122.16 176.198 122.362C176.396 122.565 176.495 122.845 176.495 123.205V125.041C176.495 125.399 176.396 125.679 176.196 125.881C175.996 126.086 175.704 126.187 175.313 126.187H175.315V126.19ZM175.315 125.554C175.499 125.554 175.631 125.5 175.711 125.392C175.791 125.283 175.831 125.135 175.831 124.947V123.306C175.831 123.115 175.791 122.967 175.711 122.859C175.631 122.751 175.499 122.699 175.315 122.699C175.132 122.699 175 122.753 174.92 122.859C174.84 122.967 174.8 123.115 174.8 123.306V124.947C174.8 125.135 174.84 125.283 174.92 125.392C175 125.5 175.132 125.554 175.315 125.554Z" fill="#92E5EA"/>
<path d="M178.873 122.11V126.147H178.209V122.866L177.674 123.134V122.438L178.263 122.11H178.873Z" fill="#92E5EA"/>
<path d="M181.483 126.19C181.09 126.19 180.796 126.086 180.598 125.879C180.4 125.672 180.301 125.394 180.301 125.041V123.205C180.301 122.847 180.4 122.567 180.6 122.365C180.798 122.16 181.092 122.059 181.483 122.059C181.874 122.059 182.168 122.16 182.366 122.362C182.564 122.565 182.663 122.845 182.663 123.205V125.041C182.663 125.399 182.564 125.679 182.364 125.881C182.163 126.086 181.872 126.187 181.481 126.187H181.483V126.19ZM181.483 125.554C181.667 125.554 181.799 125.5 181.879 125.392C181.959 125.283 181.999 125.135 181.999 124.947V123.306C181.999 123.115 181.959 122.967 181.879 122.859C181.799 122.751 181.667 122.699 181.483 122.699C181.299 122.699 181.168 122.753 181.088 122.859C181.008 122.967 180.968 123.115 180.968 123.306V124.947C180.968 125.135 181.008 125.283 181.088 125.392C181.168 125.5 181.299 125.554 181.483 125.554Z" fill="#92E5EA"/>
<path d="M185.078 126.19C184.685 126.19 184.391 126.086 184.193 125.879C183.995 125.672 183.896 125.394 183.896 125.041V123.205C183.896 122.847 183.995 122.567 184.195 122.365C184.393 122.16 184.688 122.059 185.078 122.059C185.469 122.059 185.763 122.16 185.961 122.362C186.159 122.565 186.258 122.845 186.258 123.205V125.041C186.258 125.399 186.159 125.679 185.959 125.881C185.759 126.086 185.467 126.187 185.076 126.187H185.078V126.19ZM185.078 125.554C185.262 125.554 185.394 125.5 185.474 125.392C185.554 125.283 185.594 125.135 185.594 124.947V123.306C185.594 123.115 185.554 122.967 185.474 122.859C185.394 122.751 185.262 122.699 185.078 122.699C184.895 122.699 184.763 122.753 184.683 122.859C184.603 122.967 184.563 123.115 184.563 123.306V124.947C184.563 125.135 184.603 125.283 184.683 125.392C184.763 125.5 184.895 125.554 185.078 125.554Z" fill="#92E5EA"/>
<path d="M188.635 122.11V126.147H187.971V122.866L187.437 123.134V122.438L188.026 122.11H188.635Z" fill="#92E5EA"/>
<path d="M191.244 126.19C190.851 126.19 190.556 126.086 190.359 125.879C190.161 125.672 190.062 125.394 190.062 125.041V123.205C190.062 122.847 190.161 122.567 190.361 122.365C190.559 122.16 190.853 122.059 191.244 122.059C191.635 122.059 191.929 122.16 192.127 122.362C192.324 122.565 192.423 122.845 192.423 123.205V125.041C192.423 125.399 192.324 125.679 192.124 125.881C191.924 126.086 191.632 126.187 191.241 126.187H191.244V126.19ZM191.244 125.554C191.427 125.554 191.559 125.5 191.639 125.392C191.719 125.283 191.759 125.135 191.759 124.947V123.306C191.759 123.115 191.719 122.967 191.639 122.859C191.559 122.751 191.427 122.699 191.244 122.699C191.06 122.699 190.928 122.753 190.848 122.859C190.768 122.967 190.728 123.115 190.728 123.306V124.947C190.728 125.135 190.768 125.283 190.848 125.392C190.928 125.5 191.06 125.554 191.244 125.554Z" fill="#92E5EA"/>
<path d="M159.806 134.682V138.719H159.142V135.438L158.607 135.706V135.009L159.196 134.682H159.806Z" fill="#92E5EA"/>
<path d="M162.266 134.682V138.719H161.602V135.438L161.067 135.706V135.01L161.656 134.682H162.266Z" fill="#92E5EA"/>
<path d="M164.874 138.762C164.481 138.762 164.187 138.658 163.989 138.451C163.791 138.244 163.692 137.966 163.692 137.613V135.777C163.692 135.419 163.791 135.139 163.991 134.937C164.189 134.732 164.483 134.631 164.874 134.631C165.265 134.631 165.559 134.732 165.757 134.934C165.955 135.137 166.054 135.417 166.054 135.777V137.613C166.054 137.971 165.955 138.251 165.755 138.453C165.555 138.658 165.263 138.759 164.872 138.759H164.874V138.762ZM164.874 138.126C165.058 138.126 165.19 138.072 165.27 137.964C165.35 137.855 165.39 137.707 165.39 137.519V135.878C165.39 135.687 165.35 135.539 165.27 135.431C165.19 135.323 165.058 135.271 164.874 135.271C164.691 135.271 164.559 135.325 164.479 135.431C164.399 135.539 164.359 135.687 164.359 135.878V137.519C164.359 137.707 164.399 137.855 164.479 137.964C164.559 138.072 164.691 138.126 164.874 138.126Z" fill="#92E5EA"/>
<path d="M168.471 138.762C168.078 138.762 167.784 138.658 167.586 138.451C167.388 138.244 167.29 137.966 167.29 137.613V135.777C167.29 135.419 167.388 135.139 167.589 134.937C167.786 134.732 168.081 134.631 168.471 134.631C168.862 134.631 169.156 134.732 169.354 134.934C169.552 135.137 169.651 135.417 169.651 135.777V137.613C169.651 137.971 169.552 138.251 169.352 138.453C169.152 138.658 168.86 138.759 168.469 138.759H168.471V138.762ZM168.471 138.126C168.655 138.126 168.787 138.072 168.867 137.964C168.947 137.855 168.987 137.707 168.987 137.519V135.878C168.987 135.687 168.947 135.539 168.867 135.431C168.787 135.323 168.655 135.271 168.471 135.271C168.288 135.271 168.156 135.325 168.076 135.431C167.996 135.539 167.956 135.687 167.956 135.878V137.519C167.956 137.707 167.996 137.855 168.076 137.964C168.156 138.072 168.288 138.126 168.471 138.126Z" fill="#92E5EA"/>
<path d="M172.029 134.682V138.719H171.365V135.438L170.831 135.706V135.01L171.419 134.682H172.029Z" fill="#92E5EA"/>
<path d="M184.344 59.8228V63.8596H183.68V60.5783L183.146 60.8467V60.1499L183.734 59.8228H184.344Z" fill="#92E5EA"/>
<path d="M186.804 59.8228V63.8596H186.14V60.5783L185.606 60.8467V60.1499L186.195 59.8228H186.804Z" fill="#92E5EA"/>
<path d="M189.413 63.9021C189.02 63.9021 188.725 63.7985 188.528 63.5937C188.33 63.3866 188.231 63.1088 188.231 62.7558V60.9198C188.231 60.562 188.33 60.2819 188.53 60.0794C188.728 59.877 189.022 59.7734 189.413 59.7734C189.804 59.7734 190.098 59.8747 190.296 60.0771C190.493 60.2795 190.592 60.5596 190.592 60.9198V62.7558C190.592 63.1135 190.493 63.3937 190.293 63.5961C190.093 63.8009 189.801 63.9021 189.41 63.9021H189.413ZM189.413 63.2666C189.596 63.2666 189.728 63.2124 189.808 63.1041C189.888 62.9959 189.928 62.8476 189.928 62.6593V61.0186C189.928 60.828 189.888 60.6797 189.808 60.5714C189.728 60.4631 189.596 60.4113 189.413 60.4113C189.229 60.4113 189.097 60.4655 189.017 60.5714C188.937 60.6797 188.897 60.828 188.897 61.0186V62.6593C188.897 62.8476 188.937 62.9959 189.017 63.1041C189.097 63.2124 189.229 63.2666 189.413 63.2666Z" fill="#92E5EA"/>
<path d="M193.01 63.9021C192.617 63.9021 192.323 63.7985 192.125 63.5937C191.927 63.3866 191.828 63.1088 191.828 62.7558V60.9198C191.828 60.562 191.927 60.2819 192.127 60.0794C192.325 59.877 192.619 59.7734 193.01 59.7734C193.401 59.7734 193.695 59.8747 193.893 60.0771C194.091 60.2795 194.189 60.5596 194.189 60.9198V62.7558C194.189 63.1135 194.091 63.3937 193.89 63.5961C193.69 63.8009 193.398 63.9021 193.008 63.9021H193.01ZM193.01 63.2666C193.194 63.2666 193.325 63.2124 193.405 63.1041C193.486 62.9959 193.526 62.8476 193.526 62.6593V61.0186C193.526 60.828 193.486 60.6797 193.405 60.5714C193.325 60.4631 193.194 60.4113 193.01 60.4113C192.826 60.4113 192.694 60.4655 192.614 60.5714C192.534 60.6797 192.494 60.828 192.494 61.0186V62.6593C192.494 62.8476 192.534 62.9959 192.614 63.1041C192.694 63.2124 192.826 63.2666 193.01 63.2666Z" fill="#92E5EA"/>
<path d="M196.565 59.8228V63.8596H195.901V60.5783L195.366 60.8467V60.1499L195.955 59.8228H196.565Z" fill="#92E5EA"/>
<path d="M183.251 148.3V147.711L184.647 145.861C184.72 145.767 184.775 145.67 184.815 145.569C184.855 145.468 184.873 145.374 184.873 145.287V145.282C184.873 145.148 184.831 145.042 184.749 144.969C184.666 144.896 184.549 144.858 184.398 144.858C184.247 144.858 184.137 144.903 184.045 144.993C183.953 145.082 183.899 145.209 183.88 145.374H183.197C183.237 145.007 183.362 144.724 183.572 144.522C183.783 144.322 184.057 144.22 184.391 144.22C184.76 144.22 185.048 144.312 185.253 144.496C185.455 144.679 185.559 144.938 185.559 145.273C185.559 145.437 185.528 145.605 185.467 145.772C185.406 145.941 185.318 146.096 185.21 146.24L184.127 147.662H185.582V148.297H183.249H183.251V148.3Z" fill="#92E5EA"/>
<path d="M188 148.342C187.607 148.342 187.312 148.238 187.115 148.033C186.917 147.826 186.818 147.549 186.818 147.195V145.359C186.818 145.002 186.917 144.722 187.117 144.519C187.315 144.317 187.609 144.213 188 144.213C188.391 144.213 188.685 144.314 188.883 144.517C189.08 144.719 189.179 144.999 189.179 145.359V147.195C189.179 147.553 189.08 147.833 188.88 148.036C188.68 148.241 188.388 148.342 187.997 148.342H188ZM188 147.706C188.183 147.706 188.315 147.652 188.395 147.544C188.475 147.436 188.515 147.287 188.515 147.099V145.458C188.515 145.268 188.475 145.119 188.395 145.011C188.315 144.903 188.183 144.851 188 144.851C187.816 144.851 187.684 144.905 187.604 145.011C187.524 145.119 187.484 145.268 187.484 145.458V147.099C187.484 147.287 187.524 147.436 187.604 147.544C187.684 147.652 187.816 147.706 188 147.706Z" fill="#92E5EA"/>
<path d="M191.595 148.342C191.202 148.342 190.907 148.238 190.71 148.033C190.512 147.826 190.413 147.549 190.413 147.195V145.359C190.413 145.002 190.512 144.722 190.712 144.519C190.91 144.317 191.204 144.213 191.595 144.213C191.986 144.213 192.28 144.314 192.478 144.517C192.676 144.719 192.774 144.999 192.774 145.359V147.195C192.774 147.553 192.676 147.833 192.475 148.036C192.275 148.241 191.983 148.342 191.593 148.342H191.595ZM191.595 147.706C191.779 147.706 191.91 147.652 191.99 147.544C192.07 147.436 192.11 147.287 192.11 147.099V145.458C192.11 145.268 192.07 145.119 191.99 145.011C191.91 144.903 191.779 144.851 191.595 144.851C191.411 144.851 191.279 144.905 191.199 145.011C191.119 145.119 191.079 145.268 191.079 145.458V147.099C191.079 147.287 191.119 147.436 191.199 147.544C191.279 147.652 191.411 147.706 191.595 147.706Z" fill="#92E5EA"/>
<path d="M195.192 148.342C194.799 148.342 194.505 148.238 194.307 148.033C194.109 147.826 194.01 147.549 194.01 147.195V145.359C194.01 145.002 194.109 144.722 194.309 144.519C194.507 144.317 194.801 144.213 195.192 144.213C195.583 144.213 195.877 144.314 196.075 144.517C196.273 144.719 196.372 144.999 196.372 145.359V147.195C196.372 147.553 196.273 147.833 196.073 148.036C195.872 148.241 195.581 148.342 195.19 148.342H195.192ZM195.192 147.706C195.376 147.706 195.508 147.652 195.588 147.544C195.668 147.436 195.708 147.287 195.708 147.099V145.458C195.708 145.268 195.668 145.119 195.588 145.011C195.508 144.903 195.376 144.851 195.192 144.851C195.008 144.851 194.877 144.905 194.797 145.011C194.717 145.119 194.676 145.268 194.676 145.458V147.099C194.676 147.287 194.717 147.436 194.797 147.544C194.877 147.652 195.008 147.706 195.192 147.706Z" fill="#92E5EA"/>
<path d="M156.865 144.305V148.342H156.201V145.061L155.667 145.329V144.632L156.255 144.305H156.865Z" fill="#92E5EA"/>
<path d="M159.476 148.382C159.083 148.382 158.788 148.278 158.591 148.073C158.393 147.866 158.294 147.589 158.294 147.235V145.399C158.294 145.042 158.393 144.762 158.593 144.559C158.791 144.357 159.085 144.253 159.476 144.253C159.867 144.253 160.161 144.354 160.359 144.557C160.556 144.759 160.655 145.039 160.655 145.399V147.235C160.655 147.593 160.556 147.873 160.356 148.076C160.156 148.281 159.864 148.382 159.473 148.382H159.476ZM159.476 147.746C159.659 147.746 159.791 147.692 159.871 147.584C159.951 147.476 159.991 147.327 159.991 147.139V145.498C159.991 145.308 159.951 145.159 159.871 145.051C159.791 144.943 159.659 144.891 159.476 144.891C159.292 144.891 159.16 144.945 159.08 145.051C159 145.159 158.96 145.308 158.96 145.498V147.139C158.96 147.327 159 147.476 159.08 147.584C159.16 147.692 159.292 147.746 159.476 147.746Z" fill="#92E5EA"/>
<path d="M163.579 153.669C163.186 153.669 162.892 153.565 162.694 153.358C162.496 153.151 162.397 152.873 162.397 152.52V150.684C162.397 150.326 162.496 150.046 162.696 149.844C162.894 149.639 163.188 149.538 163.579 149.538C163.97 149.538 164.264 149.639 164.462 149.841C164.66 150.044 164.759 150.324 164.759 150.684V152.52C164.759 152.878 164.66 153.158 164.46 153.36C164.26 153.565 163.968 153.666 163.577 153.666H163.579V153.669ZM163.579 153.031C163.763 153.031 163.895 152.977 163.975 152.868C164.055 152.76 164.095 152.612 164.095 152.423V150.783C164.095 150.592 164.055 150.444 163.975 150.336C163.895 150.227 163.763 150.175 163.579 150.175C163.396 150.175 163.264 150.23 163.184 150.336C163.104 150.444 163.064 150.592 163.064 150.783V152.423C163.064 152.612 163.104 152.76 163.184 152.868C163.264 152.977 163.396 153.031 163.579 153.031Z" fill="#92E5EA"/>
<path d="M155.45 156.573C155.134 156.573 154.873 156.477 154.666 156.284C154.459 156.091 154.334 155.818 154.294 155.462H154.958C154.977 155.61 155.028 155.726 155.116 155.808C155.203 155.89 155.316 155.933 155.455 155.933C155.612 155.933 155.735 155.881 155.819 155.775C155.907 155.672 155.949 155.523 155.949 155.335V154.996C155.949 154.808 155.909 154.662 155.827 154.558C155.744 154.455 155.629 154.403 155.478 154.403C155.375 154.403 155.28 154.431 155.196 154.485C155.111 154.542 155.045 154.619 154.998 154.718H154.383V152.494H156.498V153.129H155.047V153.939C155.111 153.883 155.191 153.838 155.283 153.805C155.375 153.774 155.469 153.758 155.563 153.758C155.897 153.758 156.154 153.866 156.337 154.08C156.521 154.297 156.613 154.601 156.613 154.994V155.333C156.613 155.726 156.512 156.032 156.309 156.248C156.107 156.465 155.819 156.571 155.45 156.571V156.573Z" fill="#92E5EA"/>
<path d="M170.251 84.6V84.0115L171.647 82.1614C171.72 82.0672 171.775 81.9707 171.815 81.8695C171.855 81.7683 171.873 81.6741 171.873 81.587V81.5823C171.873 81.4482 171.831 81.3422 171.749 81.2693C171.666 81.1963 171.549 81.1586 171.398 81.1586C171.247 81.1586 171.137 81.2034 171.045 81.2928C170.953 81.3823 170.899 81.5094 170.88 81.6741H170.197C170.237 81.3069 170.362 81.0245 170.572 80.822C170.783 80.622 171.057 80.5208 171.391 80.5208C171.76 80.5208 172.048 80.6125 172.253 80.7961C172.455 80.9797 172.559 81.2387 172.559 81.5729C172.559 81.7377 172.528 81.9048 172.467 82.0719C172.406 82.2414 172.318 82.3968 172.21 82.5403L171.127 83.9621H172.582V84.5976H170.249H170.251V84.6Z" fill="#92E5EA"/>
<path d="M175 84.6421C174.607 84.6421 174.312 84.5385 174.115 84.3337C173.917 84.1266 173.818 83.8488 173.818 83.4957V81.6597C173.818 81.302 173.917 81.0219 174.117 80.8194C174.315 80.617 174.609 80.5134 175 80.5134C175.391 80.5134 175.685 80.6146 175.883 80.8171C176.08 81.0195 176.179 81.2996 176.179 81.6597V83.4957C176.179 83.8535 176.08 84.1336 175.88 84.3361C175.68 84.5409 175.388 84.6421 174.997 84.6421H175ZM175 84.0042C175.183 84.0042 175.315 83.95 175.395 83.8418C175.475 83.7335 175.515 83.5852 175.515 83.3969V81.7563C175.515 81.5656 175.475 81.4173 175.395 81.309C175.315 81.2008 175.183 81.149 175 81.149C174.816 81.149 174.684 81.2031 174.604 81.309C174.524 81.4173 174.484 81.5656 174.484 81.7563V83.3969C174.484 83.5852 174.524 83.7335 174.604 83.8418C174.684 83.95 174.816 84.0042 175 84.0042Z" fill="#92E5EA"/>
<path d="M178.597 84.6421C178.204 84.6421 177.91 84.5385 177.712 84.3337C177.514 84.1266 177.416 83.8488 177.416 83.4957V81.6597C177.416 81.302 177.514 81.0219 177.715 80.8194C177.912 80.617 178.207 80.5134 178.597 80.5134C178.988 80.5134 179.282 80.6146 179.48 80.8171C179.678 81.0195 179.777 81.2996 179.777 81.6597V83.4957C179.777 83.8535 179.678 84.1336 179.478 84.3361C179.278 84.5409 178.986 84.6421 178.595 84.6421H178.597ZM178.597 84.0042C178.781 84.0042 178.913 83.95 178.993 83.8418C179.073 83.7335 179.113 83.5852 179.113 83.3969V81.7563C179.113 81.5656 179.073 81.4173 178.993 81.309C178.913 81.2008 178.781 81.149 178.597 81.149C178.414 81.149 178.282 81.2031 178.202 81.309C178.122 81.4173 178.082 81.5656 178.082 81.7563V83.3969C178.082 83.5852 178.122 83.7335 178.202 83.8418C178.282 83.95 178.414 84.0042 178.597 84.0042Z" fill="#92E5EA"/>
<path d="M182.152 80.5627V84.5996H181.488V81.3183L180.954 81.5867V80.8899L181.542 80.5627H182.152Z" fill="#92E5EA"/>
<path d="M183.522 84.5997V84.0113L184.918 82.1611C184.991 82.067 185.046 81.9705 185.086 81.8693C185.126 81.768 185.144 81.6739 185.144 81.5868V81.5821C185.144 81.4479 185.102 81.342 185.02 81.269C184.937 81.1961 184.82 81.1584 184.669 81.1584C184.518 81.1584 184.408 81.2031 184.316 81.2926C184.224 81.382 184.17 81.5091 184.151 81.6739H183.468C183.508 81.3067 183.633 81.0242 183.843 80.8218C184.054 80.6217 184.328 80.5205 184.662 80.5205C185.031 80.5205 185.319 80.6123 185.524 80.7959C185.726 80.9795 185.83 81.2384 185.83 81.5727C185.83 81.7374 185.799 81.9046 185.738 82.0717C185.677 82.2412 185.589 82.3965 185.481 82.5401L184.398 83.9618H185.853V84.5974H183.52H183.522V84.5997Z" fill="#92E5EA"/>
<path d="M188.12 80.5627V84.5996H187.456V81.3183L186.922 81.5867V80.8899L187.51 80.5627H188.12Z" fill="#92E5EA"/>
<path d="M190.731 84.6421C190.337 84.6421 190.043 84.5385 189.845 84.3337C189.648 84.1266 189.549 83.8488 189.549 83.4957V81.6597C189.549 81.302 189.648 81.0219 189.848 80.8194C190.046 80.617 190.34 80.5134 190.731 80.5134C191.121 80.5134 191.416 80.6146 191.613 80.8171C191.811 81.0195 191.91 81.2996 191.91 81.6597V83.4957C191.91 83.8535 191.811 84.1336 191.611 84.3361C191.411 84.5409 191.119 84.6421 190.728 84.6421H190.731ZM190.731 84.0042C190.914 84.0042 191.046 83.95 191.126 83.8418C191.206 83.7335 191.246 83.5852 191.246 83.3969V81.7563C191.246 81.5656 191.206 81.4173 191.126 81.309C191.046 81.2008 190.914 81.149 190.731 81.149C190.547 81.149 190.415 81.2031 190.335 81.309C190.255 81.4173 190.215 81.5656 190.215 81.7563V83.3969C190.215 83.5852 190.255 83.7335 190.335 83.8418C190.415 83.95 190.547 84.0042 190.731 84.0042Z" fill="#92E5EA"/>
<defs>
<linearGradient id="paint0_linear_849_677" x1="66.8936" y1="26.1277" x2="68.8334" y2="26.1277" gradientUnits="userSpaceOnUse">
<stop stop-color="#03B5F3"/>
<stop offset="1" stop-color="#00CBFC"/>
</linearGradient>
<linearGradient id="paint1_linear_849_677" x1="92.891" y1="13.6759" x2="94.8286" y2="13.6759" gradientUnits="userSpaceOnUse">
<stop stop-color="#03B5F3"/>
<stop offset="1" stop-color="#00CBFC"/>
</linearGradient>
<linearGradient id="paint2_linear_849_677" x1="58.6274" y1="168.074" x2="60.6332" y2="168.074" gradientUnits="userSpaceOnUse">
<stop stop-color="#03B5F3"/>
<stop offset="1" stop-color="#00CBFC"/>
</linearGradient>
<linearGradient id="paint3_linear_849_677" x1="71.4159" y1="178.064" x2="72.8685" y2="178.064" gradientUnits="userSpaceOnUse">
<stop stop-color="#03B5F3"/>
<stop offset="1" stop-color="#00CBFC"/>
</linearGradient>
<linearGradient id="paint4_linear_849_677" x1="130.479" y1="23.27" x2="132.419" y2="23.27" gradientUnits="userSpaceOnUse">
<stop stop-color="#03B5F3"/>
<stop offset="1" stop-color="#00CBFC"/>
</linearGradient>
<linearGradient id="paint5_linear_849_677" x1="153.367" y1="168.074" x2="155.372" y2="168.074" gradientUnits="userSpaceOnUse">
<stop stop-color="#03B5F3"/>
<stop offset="1" stop-color="#00CBFC"/>
</linearGradient>
<linearGradient id="paint6_linear_849_677" x1="141.132" y1="178.064" x2="142.584" y2="178.064" gradientUnits="userSpaceOnUse">
<stop stop-color="#03B5F3"/>
<stop offset="1" stop-color="#00CBFC"/>
</linearGradient>
<linearGradient id="paint7_linear_849_677" x1="143.82" y1="156.702" x2="80.1727" y2="46.4463" gradientUnits="userSpaceOnUse">
<stop stop-color="#003C9C"/>
<stop offset="1" stop-color="#018BD3"/>
</linearGradient>
<linearGradient id="paint8_linear_849_677" x1="151.813" y1="117.73" x2="113.008" y2="50.5081" gradientUnits="userSpaceOnUse">
<stop stop-color="#003C9C"/>
<stop offset="1" stop-color="#018BD3"/>
</linearGradient>
<linearGradient id="paint9_linear_849_677" x1="106.774" y1="178.654" x2="106.774" y2="42.8516" gradientUnits="userSpaceOnUse">
<stop stop-color="#4BDCEA"/>
<stop offset="1" stop-color="#FAFFFA"/>
</linearGradient>
<linearGradient id="paint10_linear_849_677" x1="156.001" y1="100.361" x2="140.7" y2="73.8568" gradientUnits="userSpaceOnUse">
<stop stop-color="#003C9C"/>
<stop offset="1" stop-color="#018BD3"/>
</linearGradient>
<linearGradient id="paint11_linear_849_677" x1="63.6445" y1="80.5698" x2="106.911" y2="80.5698" gradientUnits="userSpaceOnUse">
<stop stop-color="#03B5F3"/>
<stop offset="1" stop-color="#00CBFC"/>
</linearGradient>
</defs>
</svg>
