<svg width="48" height="56" viewBox="0 0 48 56" fill="none" xmlns="http://www.w3.org/2000/svg">
<g filter="url(#filter0_i_8_13830)">
<path d="M0.5 37.4478C0.5 24.7797 10.7705 14.5093 23.4385 14.5093H24.5615C37.2275 14.5093 47.5 24.7797 47.5 37.4478V38.0183C47.5 42.6736 45.6507 47.1382 42.3589 50.4301C39.067 53.7219 34.6024 55.5712 29.9471 55.5712H18.0529C13.3976 55.5712 8.93295 53.7219 5.64114 50.4301C2.34932 47.1382 0.5 42.6736 0.5 38.0183V37.4478Z" fill="url(#paint0_radial_8_13830)"/>
<path d="M0.5 37.4478C0.5 24.7797 10.7705 14.5093 23.4385 14.5093H24.5615C37.2275 14.5093 47.5 24.7797 47.5 37.4478V38.0183C47.5 42.6736 45.6507 47.1382 42.3589 50.4301C39.067 53.7219 34.6024 55.5712 29.9471 55.5712H18.0529C13.3976 55.5712 8.93295 53.7219 5.64114 50.4301C2.34932 47.1382 0.5 42.6736 0.5 38.0183V37.4478Z" fill="url(#paint1_radial_8_13830)"/>
</g>
<path d="M0.5 37.4478C0.5 24.7797 10.7705 14.5093 23.4385 14.5093H24.5615C37.2275 14.5093 47.5 24.7797 47.5 37.4478V38.0183C47.5 42.6736 45.6507 47.1382 42.3589 50.4301C39.067 53.7219 34.6024 55.5712 29.9471 55.5712H18.0529C13.3976 55.5712 8.93295 53.7219 5.64114 50.4301C2.34932 47.1382 0.5 42.6736 0.5 38.0183V37.4478Z" fill="url(#paint2_radial_8_13830)"/>
<path d="M0.5 37.4478C0.5 24.7797 10.7705 14.5093 23.4385 14.5093H24.5615C37.2275 14.5093 47.5 24.7797 47.5 37.4478V38.0183C47.5 42.6736 45.6507 47.1382 42.3589 50.4301C39.067 53.7219 34.6024 55.5712 29.9471 55.5712H18.0529C13.3976 55.5712 8.93295 53.7219 5.64114 50.4301C2.34932 47.1382 0.5 42.6736 0.5 38.0183V37.4478Z" fill="url(#paint3_radial_8_13830)"/>
<g filter="url(#filter1_ii_8_13830)">
<path d="M15.8982 5.15817C16.8357 6.75589 18.2021 8.80639 19.9574 10.4879H28.0457C29.801 8.80639 31.1653 6.75788 32.1048 5.15817C32.2172 4.96203 32.2882 4.74494 32.3135 4.5203C32.3388 4.29566 32.3178 4.06822 32.2518 3.852C32.1858 3.63578 32.0763 3.43536 31.9299 3.26309C31.7835 3.09082 31.6034 2.95036 31.4007 2.85036C30.7624 2.52324 30.0124 2.67882 29.3921 3.03985C27.9918 3.85566 27.184 2.89424 25.9493 1.0053C25.329 0.0558501 24.3815 0.00598396 24.0005 0C23.6215 0.00598396 22.6741 0.0558501 22.0537 1.0053C20.817 2.89424 20.0112 3.85566 18.611 3.03985C17.9906 2.67882 17.2406 2.52324 16.6004 2.85036C16.3978 2.95054 16.2179 3.09114 16.0717 3.26348C15.9255 3.43583 15.8162 3.63628 15.7504 3.85248C15.6846 4.06869 15.6638 4.29607 15.6892 4.52062C15.7146 4.74518 15.7858 4.96215 15.8982 5.15817Z" fill="url(#paint4_linear_8_13830)"/>
</g>
<g filter="url(#filter2_f_8_13830)">
<path d="M25.1493 24.2329C25.1493 23.8097 24.9812 23.4038 24.6819 23.1046C24.3826 22.8053 23.9768 22.6372 23.5536 22.6372C23.1303 22.6372 22.7245 22.8053 22.4252 23.1046C22.1259 23.4038 21.9578 23.8097 21.9578 24.2329V25.7389C21.9578 26.0959 21.7185 26.4051 21.3854 26.5328C20.8095 26.7505 20.2669 27.0479 19.7737 27.4164C19.0465 27.9492 18.4575 28.6485 18.056 29.4557C17.6544 30.2629 17.4521 31.1545 17.4659 32.056C17.4659 34.1703 18.4193 35.7022 19.7138 36.6836C20.9465 37.621 22.4365 38.024 23.6234 38.1317C24.1061 38.1756 24.8261 38.3052 25.4205 38.6802C25.9372 39.0053 26.4498 39.5618 26.5575 40.7546C26.6612 41.8956 26.1985 42.5738 25.5941 43.0345C24.896 43.5671 24.0841 43.7366 23.8787 43.7366C23.398 43.7366 22.5742 43.6728 21.876 43.2938C21.2896 42.9747 20.6593 42.3743 20.5277 40.9042C20.4898 40.4826 20.2861 40.0933 19.9612 39.8219C19.6363 39.5505 19.2169 39.4193 18.7953 39.4571C18.3737 39.4949 17.9844 39.6987 17.713 40.0236C17.4416 40.3485 17.3104 40.7678 17.3482 41.1895C17.5756 43.7406 18.8442 45.2785 20.3541 46.1003C20.6892 46.2785 21.0223 46.4228 21.3534 46.5331C21.5257 46.5863 21.6767 46.6924 21.7852 46.8364C21.8937 46.9803 21.9541 47.1548 21.9578 47.335V48.6973C21.9578 49.1206 22.1259 49.5264 22.4252 49.8257C22.7245 50.1249 23.1303 50.2931 23.5536 50.2931C23.9768 50.2931 24.3826 50.1249 24.6819 49.8257C24.9812 49.5264 25.1493 49.1206 25.1493 48.6973V47.349C25.1493 46.9899 25.3926 46.6768 25.7317 46.5511C26.3301 46.3317 26.9564 46.0086 27.5269 45.5737C28.8533 44.5624 29.9564 42.8809 29.737 40.4674C29.5335 38.2314 28.4125 36.885 27.104 36.0592C26.1177 35.4603 25.0106 35.0883 23.8627 34.9701C22.0496 34.8764 20.6573 33.8751 20.6573 32.056C20.6573 31.0546 21.0562 30.3206 21.6427 29.8818C22.8574 28.8525 24.9219 28.9922 25.8973 30.2847C26.3281 30.8572 26.5216 31.4875 26.5655 32.056C26.6333 32.9336 27.3933 33.6337 28.2729 33.5659C29.1505 33.5001 29.8068 32.8119 29.739 31.9323C29.6434 30.669 29.1918 29.4587 28.4365 28.4416C27.8301 27.6358 26.6832 26.8659 25.7437 26.4789C25.5742 26.4153 25.4273 26.3029 25.3215 26.156C25.2158 26.009 25.1558 25.8341 25.1493 25.6531V24.2329Z" fill="url(#paint5_linear_8_13830)"/>
</g>
<g filter="url(#filter3_ii_8_13830)">
<path d="M25.5496 24.0296C25.5496 23.6063 25.3815 23.2005 25.0822 22.9012C24.7829 22.602 24.3771 22.4338 23.9538 22.4338C23.5306 22.4338 23.1248 22.602 22.8255 22.9012C22.5262 23.2005 22.3581 23.6063 22.3581 24.0296V25.5355C22.3581 25.8946 22.1188 26.2017 21.7857 26.3294C21.2108 26.5494 20.6686 26.8467 20.174 27.213C19.4471 27.7461 18.8585 28.4455 18.4574 29.2526C18.0562 30.0598 17.8542 30.9513 17.8682 31.8526C17.8682 33.9669 18.8196 35.4988 20.1141 36.4802C21.3468 37.4177 22.8348 37.8226 24.0237 37.9303C24.5064 37.9742 25.2264 38.1018 25.8228 38.4768C26.3375 38.802 26.8501 39.3585 26.9598 40.5513C27.0635 41.6942 26.5988 42.3724 25.9924 42.8332C25.2943 43.3657 24.4844 43.5333 24.277 43.5333C23.7983 43.5333 22.9745 43.4694 22.2763 43.0925C21.6899 42.7733 21.0596 42.1709 20.928 40.7029C20.9094 40.4941 20.8498 40.291 20.7528 40.1053C20.6557 39.9195 20.523 39.7547 20.3622 39.6202C20.2014 39.4858 20.0157 39.3843 19.8157 39.3216C19.6158 39.2589 19.4054 39.2361 19.1966 39.2547C18.9878 39.2733 18.7848 39.3329 18.599 39.43C18.4133 39.527 18.2484 39.6597 18.114 39.8205C17.9795 39.9813 17.878 40.167 17.8153 40.367C17.7526 40.5669 17.7299 40.7773 17.7485 40.9861C17.9759 43.5393 19.2445 45.0771 20.7544 45.8969C21.0895 46.0765 21.4226 46.2207 21.7537 46.3298C22.1028 46.4495 22.3581 46.7646 22.3581 47.1336V48.496C22.3581 48.9192 22.5262 49.3251 22.8255 49.6243C23.1248 49.9236 23.5306 50.0917 23.9538 50.0917C24.3771 50.0917 24.7829 49.9236 25.0822 49.6243C25.3815 49.3251 25.5496 48.9192 25.5496 48.496V47.1476C25.5496 46.7866 25.7929 46.4754 26.132 46.3497C26.7304 46.1303 27.3567 45.8072 27.9272 45.3723C29.2536 44.3611 30.3567 42.6776 30.1373 40.264C29.9338 38.028 28.8128 36.6836 27.5043 35.8559C26.518 35.2569 25.4109 34.8849 24.263 34.7668C22.4499 34.673 21.0576 33.6717 21.0576 31.8546C21.0576 30.8533 21.4565 30.1192 22.043 29.6804C23.2577 28.6512 25.3222 28.7908 26.2976 30.0833C26.7284 30.6558 26.9219 31.2861 26.9658 31.8526C27.0336 32.7302 27.7936 33.4324 28.6732 33.3645C29.5508 33.2967 30.2071 32.6086 30.1393 31.7289C30.0437 30.4657 29.5921 29.2553 28.8368 28.2383C28.2304 27.4344 27.0835 26.6625 26.144 26.2755C25.9745 26.2119 25.8276 26.0995 25.7218 25.9526C25.6161 25.8056 25.5561 25.6307 25.5496 25.4498V24.0296Z" fill="url(#paint6_linear_8_13830)"/>
</g>
<g filter="url(#filter4_i_8_13830)">
<path d="M27.5753 10.488H20.3308C19.173 10.488 18.2344 11.4266 18.2344 12.5844V12.5984C18.2344 13.7562 19.173 14.6948 20.3308 14.6948H27.5753C28.7331 14.6948 29.6717 13.7562 29.6717 12.5984V12.5844C29.6717 11.4266 28.7331 10.488 27.5753 10.488Z" fill="url(#paint7_linear_8_13830)"/>
<path d="M27.5753 10.488H20.3308C19.173 10.488 18.2344 11.4266 18.2344 12.5844V12.5984C18.2344 13.7562 19.173 14.6948 20.3308 14.6948H27.5753C28.7331 14.6948 29.6717 13.7562 29.6717 12.5984V12.5844C29.6717 11.4266 28.7331 10.488 27.5753 10.488Z" fill="url(#paint8_radial_8_13830)"/>
</g>
<path d="M27.5744 10.488H20.3298C19.172 10.488 18.2334 11.4266 18.2334 12.5844V12.5984C18.2334 13.7562 19.172 14.6948 20.3298 14.6948H27.5744C28.7322 14.6948 29.6707 13.7562 29.6707 12.5984V12.5844C29.6707 11.4266 28.7322 10.488 27.5744 10.488Z" fill="url(#paint9_radial_8_13830)"/>
<defs>
<filter id="filter0_i_8_13830" x="0.5" y="13.7593" width="47.5" height="41.812" filterUnits="userSpaceOnUse" color-interpolation-filters="sRGB">
<feFlood flood-opacity="0" result="BackgroundImageFix"/>
<feBlend mode="normal" in="SourceGraphic" in2="BackgroundImageFix" result="shape"/>
<feColorMatrix in="SourceAlpha" type="matrix" values="0 0 0 0 0 0 0 0 0 0 0 0 0 0 0 0 0 0 127 0" result="hardAlpha"/>
<feOffset dx="0.5" dy="-0.75"/>
<feGaussianBlur stdDeviation="0.875"/>
<feComposite in2="hardAlpha" operator="arithmetic" k2="-1" k3="1"/>
<feColorMatrix type="matrix" values="0 0 0 0 0.713726 0 0 0 0 0.321569 0 0 0 0 0.211765 0 0 0 1 0"/>
<feBlend mode="normal" in2="shape" result="effect1_innerShadow_8_13830"/>
</filter>
<filter id="filter1_ii_8_13830" x="15.5787" y="-0.125" width="16.7955" height="10.7128" filterUnits="userSpaceOnUse" color-interpolation-filters="sRGB">
<feFlood flood-opacity="0" result="BackgroundImageFix"/>
<feBlend mode="normal" in="SourceGraphic" in2="BackgroundImageFix" result="shape"/>
<feColorMatrix in="SourceAlpha" type="matrix" values="0 0 0 0 0 0 0 0 0 0 0 0 0 0 0 0 0 0 127 0" result="hardAlpha"/>
<feOffset dx="-0.1" dy="0.1"/>
<feGaussianBlur stdDeviation="0.075"/>
<feComposite in2="hardAlpha" operator="arithmetic" k2="-1" k3="1"/>
<feColorMatrix type="matrix" values="0 0 0 0 1 0 0 0 0 0.92549 0 0 0 0 0.403922 0 0 0 1 0"/>
<feBlend mode="normal" in2="shape" result="effect1_innerShadow_8_13830"/>
<feColorMatrix in="SourceAlpha" type="matrix" values="0 0 0 0 0 0 0 0 0 0 0 0 0 0 0 0 0 0 127 0" result="hardAlpha"/>
<feOffset dx="0.05" dy="-0.125"/>
<feGaussianBlur stdDeviation="0.125"/>
<feComposite in2="hardAlpha" operator="arithmetic" k2="-1" k3="1"/>
<feColorMatrix type="matrix" values="0 0 0 0 0.788235 0 0 0 0 0.364706 0 0 0 0 0.12549 0 0 0 1 0"/>
<feBlend mode="normal" in2="effect1_innerShadow_8_13830" result="effect2_innerShadow_8_13830"/>
</filter>
<filter id="filter2_f_8_13830" x="17.1918" y="22.4872" width="12.7229" height="27.9558" filterUnits="userSpaceOnUse" color-interpolation-filters="sRGB">
<feFlood flood-opacity="0" result="BackgroundImageFix"/>
<feBlend mode="normal" in="SourceGraphic" in2="BackgroundImageFix" result="shape"/>
<feGaussianBlur stdDeviation="0.075" result="effect1_foregroundBlur_8_13830"/>
</filter>
<filter id="filter3_ii_8_13830" x="17.6922" y="22.3338" width="12.5479" height="27.833" filterUnits="userSpaceOnUse" color-interpolation-filters="sRGB">
<feFlood flood-opacity="0" result="BackgroundImageFix"/>
<feBlend mode="normal" in="SourceGraphic" in2="BackgroundImageFix" result="shape"/>
<feColorMatrix in="SourceAlpha" type="matrix" values="0 0 0 0 0 0 0 0 0 0 0 0 0 0 0 0 0 0 127 0" result="hardAlpha"/>
<feOffset dx="0.075" dy="-0.1"/>
<feGaussianBlur stdDeviation="0.075"/>
<feComposite in2="hardAlpha" operator="arithmetic" k2="-1" k3="1"/>
<feColorMatrix type="matrix" values="0 0 0 0 0.352941 0 0 0 0 0.168627 0 0 0 0 0.188235 0 0 0 1 0"/>
<feBlend mode="normal" in2="shape" result="effect1_innerShadow_8_13830"/>
<feColorMatrix in="SourceAlpha" type="matrix" values="0 0 0 0 0 0 0 0 0 0 0 0 0 0 0 0 0 0 127 0" result="hardAlpha"/>
<feOffset dx="-0.05" dy="0.075"/>
<feGaussianBlur stdDeviation="0.055"/>
<feComposite in2="hardAlpha" operator="arithmetic" k2="-1" k3="1"/>
<feColorMatrix type="matrix" values="0 0 0 0 0.670588 0 0 0 0 0.458824 0 0 0 0 0.403922 0 0 0 1 0"/>
<feBlend mode="normal" in2="effect1_innerShadow_8_13830" result="effect2_innerShadow_8_13830"/>
</filter>
<filter id="filter4_i_8_13830" x="18.2344" y="10.188" width="11.4375" height="4.50679" filterUnits="userSpaceOnUse" color-interpolation-filters="sRGB">
<feFlood flood-opacity="0" result="BackgroundImageFix"/>
<feBlend mode="normal" in="SourceGraphic" in2="BackgroundImageFix" result="shape"/>
<feColorMatrix in="SourceAlpha" type="matrix" values="0 0 0 0 0 0 0 0 0 0 0 0 0 0 0 0 0 0 127 0" result="hardAlpha"/>
<feOffset dy="-0.3"/>
<feGaussianBlur stdDeviation="0.25"/>
<feComposite in2="hardAlpha" operator="arithmetic" k2="-1" k3="1"/>
<feColorMatrix type="matrix" values="0 0 0 0 0.388235 0 0 0 0 0.223529 0 0 0 0 0.109804 0 0 0 1 0"/>
<feBlend mode="normal" in2="shape" result="effect1_innerShadow_8_13830"/>
</filter>
<radialGradient id="paint0_radial_8_13830" cx="0" cy="0" r="1" gradientUnits="userSpaceOnUse" gradientTransform="translate(30.418 18.3593) rotate(100.07) scale(36.7188 38.4587)">
<stop stop-color="#F6C93B"/>
<stop offset="1" stop-color="#E88340"/>
</radialGradient>
<radialGradient id="paint1_radial_8_13830" cx="0" cy="0" r="1" gradientUnits="userSpaceOnUse" gradientTransform="translate(39.6458 24.0913) rotate(133.199) scale(14.0231 23.4942)">
<stop stop-color="#FFE065"/>
<stop offset="1" stop-color="#FFE065" stop-opacity="0"/>
</radialGradient>
<radialGradient id="paint2_radial_8_13830" cx="0" cy="0" r="1" gradientUnits="userSpaceOnUse" gradientTransform="translate(3.74131 24.0936) rotate(31.6513) scale(10.6908 26.4956)">
<stop offset="0.187" stop-color="#FFA45D"/>
<stop offset="1" stop-color="#FFA45D" stop-opacity="0"/>
</radialGradient>
<radialGradient id="paint3_radial_8_13830" cx="0" cy="0" r="1" gradientUnits="userSpaceOnUse" gradientTransform="translate(23.999 46.1584) rotate(-90) scale(32.5378 49.023)">
<stop offset="0.928" stop-color="#F3BD46" stop-opacity="0"/>
<stop offset="0.98" stop-color="#917011"/>
</radialGradient>
<linearGradient id="paint4_linear_8_13830" x1="26.5018" y1="3.55447" x2="24.0005" y2="10.4879" gradientUnits="userSpaceOnUse">
<stop stop-color="#F3C048"/>
<stop offset="1" stop-color="#E67A41"/>
</linearGradient>
<linearGradient id="paint5_linear_8_13830" x1="23.5536" y1="23.2974" x2="23.5536" y2="48.8549" gradientUnits="userSpaceOnUse">
<stop stop-color="#A6782C"/>
<stop offset="1" stop-color="#B95940"/>
</linearGradient>
<linearGradient id="paint6_linear_8_13830" x1="30.8573" y1="39.4263" x2="17.7425" y2="39.4263" gradientUnits="userSpaceOnUse">
<stop stop-color="#9D6360"/>
<stop offset="1" stop-color="#724A4D"/>
</linearGradient>
<linearGradient id="paint7_linear_8_13830" x1="19.8241" y1="12.5924" x2="29.6717" y2="12.5924" gradientUnits="userSpaceOnUse">
<stop stop-color="#834B41"/>
<stop offset="1" stop-color="#735854"/>
</linearGradient>
<radialGradient id="paint8_radial_8_13830" cx="0" cy="0" r="1" gradientUnits="userSpaceOnUse" gradientTransform="translate(27.6771 11.9381) rotate(180) scale(3.7244 2.80498)">
<stop stop-color="#7D5A54"/>
<stop offset="1" stop-color="#7D5A54" stop-opacity="0"/>
</radialGradient>
<radialGradient id="paint9_radial_8_13830" cx="0" cy="0" r="1" gradientUnits="userSpaceOnUse" gradientTransform="translate(28.1747 12.5924) rotate(180) scale(11.0329 8.83836)">
<stop offset="0.695" stop-color="#B3624D" stop-opacity="0"/>
<stop offset="0.96" stop-color="#B3624D"/>
</radialGradient>
</defs>
</svg>
